<svg width="32" height="32" viewBox="0 0 32 32" fill="none" xmlns="http://www.w3.org/2000/svg">
<path d="M12.4366 22.4V9.60002H18.5456C19.3558 9.60002 20.1327 9.889 20.7055 10.4034C21.2784 10.9178 21.6002 11.6154 21.6002 12.3429C21.6002 13.0703 21.2784 13.768 20.7055 14.2824C20.1327 14.7968 19.3558 15.0857 18.5456 15.0857H10.4002M18.5456 18.7429H10.4002M28.8002 16C28.8002 23.0693 23.0694 28.8 16.0002 28.8C8.93095 28.8 3.2002 23.0693 3.2002 16C3.2002 8.93077 8.93095 3.20001 16.0002 3.20001C23.0694 3.20001 28.8002 8.93077 28.8002 16Z" stroke="white" stroke-width="2" stroke-linecap="round" stroke-linejoin="round"/>
</svg>
