<svg width="36" height="36" viewBox="0 0 36 36" fill="none" xmlns="http://www.w3.org/2000/svg">
<path fill-rule="evenodd" clip-rule="evenodd" d="M23.12 6.69299C20.271 5.42297 14.9629 5.297 10.615 7.23291C11.1749 6.83325 11.7748 6.4928 12.4049 6.21692C13.7739 5.57898 15.9819 4.96094 18.734 4.96094C18.864 4.96082 18.994 4.96216 19.1239 4.96497C21.4769 5.00696 24.267 5.81897 25.9719 7.50598C26.262 7.85889 26.4299 8.21191 26.4919 8.48389C27.845 9.172 28.6349 9.81592 29.0709 10.5659C29.2599 10.9609 29.3219 11.376 29.2369 11.856C29.6807 12.105 30.0654 12.4467 30.365 12.8579C30.549 13.1699 30.6949 13.521 30.7379 13.8379C30.799 14.251 30.84 14.73 30.403 15.293C30.861 15.5229 31.234 16.1649 31.2789 16.439C31.5079 17.455 30.84 18.455 29.9879 19.2279C28.9879 20.101 26.782 21.142 24.9919 21.601C22.4921 22.2334 20.1866 22.6066 18.1683 22.9333C17.3336 23.0685 16.548 23.1957 15.818 23.33C16.9409 23.6 18.459 23.955 20.9369 23.955C26.241 23.955 30.924 21.454 30.924 21.454C30.924 21.454 30.8209 21.7689 30.715 22.0609C27.345 24.1 21.9979 24.9519 19.7069 24.8479C17.397 24.7419 15.4419 24.3899 13.527 23.8059C12.9418 23.9703 12.3657 24.1653 11.8009 24.3899C14.7159 25.7219 16.9199 26.0149 19.397 26.2C21.934 26.3899 26.1399 25.783 29.674 24.496C29.5946 24.5762 29.5343 24.6747 29.4749 24.7716C29.4099 24.8777 29.3462 24.9817 29.26 25.058C27.449 26.0149 23.6219 26.9729 21.6859 27.0559C19.7699 27.1399 17.4399 27.0559 15.3999 26.6799C13.652 26.3279 12.214 25.783 10.7169 25.12C10.449 25.325 10.324 25.5779 10.2589 25.87C16.11 28.9299 21.559 28.99 27.7839 27.0559L27.22 27.5979C20.3729 30.3879 15.0249 29.304 10.882 27.3049C10.8516 27.2916 10.8202 27.2783 10.7883 27.2648C10.67 27.2144 10.5458 27.1615 10.449 27.0969C10.845 27.7639 14.005 30.074 17.543 30.366C19.98 30.574 22.955 30.157 24.7229 29.4509L23.683 29.991C22.829 30.408 20.5609 31.3679 17.396 31.158C13.173 30.865 10.7999 28.991 9.73792 28.0149C9.23889 27.554 9.01196 27.0349 8.86499 26.3899C7.90698 25.8899 7.30396 25.3669 6.80701 24.5769C6.51489 24.141 6.57495 23.621 6.63696 23.1809L6.76697 22.8109C6.30591 22.474 5.828 22.12 5.64099 21.7689C5.22192 21.0189 5.47595 20.3719 5.76599 19.8719C5.51489 19.5809 5.28491 19.2899 5.18494 18.9989C5.05896 18.6659 5.03894 18.329 5.0769 17.9559C5.16199 17.3329 5.495 16.752 5.93201 16.25C6.84595 15.188 8.30591 14.356 10.7789 13.5439C12.6637 12.9144 13.6764 12.697 14.8855 12.4374C15.2399 12.3613 15.6111 12.2816 16.026 12.1869C16.8395 11.9983 17.713 11.8574 18.601 11.7142C20.0522 11.4803 21.5421 11.2402 22.871 10.7749C16.8979 9.73499 10.698 10.6909 5.64099 14.1649L5.9729 13.188C10.5089 10.2319 15.5249 8.48389 24.0149 9.96289C24.4729 9.69092 24.7429 9.41992 24.87 8.87988C22.746 8.10999 20.4369 7.83997 17.4619 7.87988C14.797 7.96497 9.98792 8.95996 7.41199 10.485L8.19897 9.50488C9.98792 8.43994 14.6699 7.047 18.1899 6.98389C20.6639 6.92297 21.934 7.06689 24.8899 7.85889C24.6356 7.396 24.0958 7.14563 23.2998 6.77649L23.12 6.69299ZM27.656 11.0249C27.575 10.4419 26.9089 9.87988 26.325 9.50488C26.2429 9.797 25.933 10.1499 25.7229 10.3799C26.3679 10.548 27.0339 10.7939 27.656 11.0249ZM24.808 11.2109C24.3889 11.5449 23.913 11.835 23.203 12.1079C24.0063 12.2489 24.6707 12.4509 25.3312 12.6519C25.631 12.743 25.9301 12.834 26.241 12.9189C26.2512 12.9237 26.2626 12.9258 26.2739 12.9249C26.491 12.9249 27.204 12.266 27.3269 12.085C26.615 11.7729 25.741 11.459 24.808 11.2109ZM29.26 14.272C29.5289 13.751 29.3629 13.418 28.803 12.939C28.573 13.2119 28.323 13.439 28.053 13.647C28.1604 13.6982 28.2655 13.7457 28.3684 13.7924C28.6835 13.9349 28.9789 14.0685 29.26 14.272ZM19.897 13.1699C17.1499 13.5029 14.11 14.0829 11.51 14.855L11.3744 14.8962C10.089 15.286 5.19995 16.7682 6.68298 18.8109C6.698 18.8109 7.62292 17.5339 11.1129 16.5199C13.3934 15.8499 15.7319 15.4237 18.1071 14.991C20.2405 14.6022 22.4033 14.208 24.58 13.627C22.7889 13.1499 21.787 12.939 19.897 13.1699ZM19.606 16.3267C17.9862 16.6177 16.0139 16.9722 13.9659 17.4149C12.7579 17.6859 9.448 18.455 7.82495 19.83C8.08972 20.0483 8.29907 20.1677 8.52515 20.2861C8.68933 20.3721 8.86243 20.4575 9.0719 20.58C9.73792 20.142 10.6549 19.726 12.01 19.37C14.141 18.8043 15.7988 18.5312 17.6742 18.2223L18.252 18.127C20.354 17.809 24.328 16.9769 26.512 16.1859C27.2429 15.939 27.907 15.6039 28.385 15.2059C28.2389 15.042 26.824 14.356 26.782 14.4189C25.9109 14.834 24.662 15.2489 22.8719 15.689C22.181 15.8639 21.0297 16.0708 19.606 16.3267ZM17.7485 19.8749C16.1572 20.1384 14.624 20.3923 13.006 20.7899C12.2789 20.975 11.5289 21.205 10.845 21.495C11.2313 21.6954 11.6387 21.8826 12.0548 22.0601C12.3755 22.1968 12.7014 22.3279 13.027 22.455C14.5249 22.0179 15.236 21.83 17.396 21.4769C18.229 21.3279 20.7679 20.871 22.599 20.5C25.9109 19.7889 30.7589 18.2479 29.469 16.25C29.3219 16.3739 29.177 16.4769 29.032 16.605C28.053 17.35 26.4919 17.9559 24.35 18.5199C21.864 19.1932 19.7598 19.5417 17.7485 19.8749ZM7.73291 21.6108C7.80176 21.5575 7.86951 21.5056 7.92993 21.454C7.59509 21.281 7.3656 21.1345 7.10217 20.9663L6.95093 20.87C6.78394 21.2489 7.12 21.6599 7.45093 21.85C7.5354 21.7649 7.63538 21.6864 7.73291 21.6108ZM11.3199 23.058C10.7169 22.787 10.073 22.5189 9.44897 22.2269C9.30383 22.3198 9.16443 22.4125 9.03516 22.5051C8.90442 22.599 8.78406 22.6929 8.67896 22.787C9.17798 23.079 9.65796 23.3479 10.158 23.6219C10.5253 23.3954 10.9147 23.2064 11.3199 23.058ZM8.88794 24.995C8.948 24.7849 9.05396 24.62 9.19995 24.412L9.14319 24.3816C8.8064 24.202 8.47217 24.0237 8.13794 23.8059C8.11499 24.2029 8.36694 24.5569 8.88794 24.995Z" fill="#0149FF"/>
<path fill-rule="evenodd" clip-rule="evenodd" d="M0 18.01C0 8.073 8.07605 0 18.012 0C27.926 0 36 8.073 36 18.01C36 27.926 27.926 36 18.012 36C8.07605 36 0 27.926 0 18.01ZM0.900024 18.01C0.900024 27.4301 8.57605 35.1 18.012 35.1C27.429 35.1 35.1 27.428 35.1 18.01C35.1 8.57397 27.432 0.900024 18.012 0.900024C8.573 0.900024 0.900024 8.56995 0.900024 18.01Z" fill="#0149FF"/>
</svg>
