<svg width="60" height="60" viewBox="0 0 60 60" fill="none" xmlns="http://www.w3.org/2000/svg">
<path fill-rule="evenodd" clip-rule="evenodd" d="M8.51064 0C3.81034 0 0 3.81034 0 8.51064V51.4894C0 56.1897 3.81034 60 8.51064 60H51.4894C56.1897 60 60 56.1897 60 51.4894V8.51064C60 3.81034 56.1897 0 51.4894 0H8.51064ZM15.1064 15.0044V29.9832V40.4856C15.1064 43.2619 16.4973 45.8545 18.813 47.3945L30.0892 54.8936L41.2312 47.3945C43.5193 45.8545 44.8936 43.2619 44.8936 40.4856V29.9832L30.0892 39.9473L15.1064 29.9832L26.4064 22.3577C28.7083 20.8043 30.0892 18.2012 30.0892 15.4151V4.89362L15.1064 15.0044ZM39.0967 28.908C42.2983 28.908 44.8936 26.3003 44.8936 23.0836C44.8936 19.8669 42.2983 17.2592 39.0967 17.2592C35.8952 17.2592 33.2998 19.8669 33.2998 23.0836C33.2998 26.3003 35.8952 28.908 39.0967 28.908Z" fill="white"/>
</svg>
