<svg width="32" height="32" viewBox="0 0 32 32" fill="none" xmlns="http://www.w3.org/2000/svg">
<path d="M22.6667 12V9.33335C22.6667 8.62611 22.3857 7.94783 21.8856 7.44774C21.3855 6.94764 20.7072 6.66669 20 6.66669H6.66667C5.95942 6.66669 5.28115 6.94764 4.78105 7.44774C4.28095 7.94783 4 8.62611 4 9.33335V17.3334C4 18.0406 4.28095 18.7189 4.78105 19.219C5.28115 19.7191 5.95942 20 6.66667 20H9.33333M12 12H25.3333C26.8061 12 28 13.1939 28 14.6667V22.6667C28 24.1394 26.8061 25.3334 25.3333 25.3334H12C10.5272 25.3334 9.33333 24.1394 9.33333 22.6667V14.6667C9.33333 13.1939 10.5272 12 12 12ZM21.3333 18.6667C21.3333 20.1394 20.1394 21.3334 18.6667 21.3334C17.1939 21.3334 16 20.1394 16 18.6667C16 17.1939 17.1939 16 18.6667 16C20.1394 16 21.3333 17.1939 21.3333 18.6667Z" stroke="white" stroke-width="2" stroke-linecap="round" stroke-linejoin="round"/>
</svg>
