<svg width="108" height="78" viewBox="0 0 108 78" fill="none" xmlns="http://www.w3.org/2000/svg">
<path d="M76.6314 34.8796C76.8731 36.2166 77 37.5931 77 39C77 51.703 66.7025 62 54 62C41.2975 62 31 51.7023 31 39C31 26.2978 41.2975 16 54 16C59.2617 15.9937 64.3643 17.7963 68.4449 21.1032L63.9714 24.4006C61.1307 22.4544 57.6959 21.3142 54 21.3142C44.2473 21.3142 36.3129 29.2475 36.3129 39.0008C36.3129 48.754 44.2473 56.6866 54 56.6866C63.7527 56.6866 71.6871 48.7533 71.6871 39C71.6871 38.8425 71.6848 38.6843 71.6811 38.5283L76.6314 34.8796Z" fill="white"/>
<path d="M45.2546 32.8621L54.0351 38.3515L72.2923 24.9384C73.389 26.3505 74.3167 27.8848 75.0569 29.5105L54.0366 44.9552L45.2546 39.4658V32.8621Z" fill="white"/>
</svg>
