<svg width="38" height="33" viewBox="0 0 38 33" fill="none" xmlns="http://www.w3.org/2000/svg">
<path d="M37.047 15.5082L37.5219 13.979L35.9509 14.0285C35.8182 14.0285 34.8535 14.001 33.9175 13.3182C33.9872 13.325 34.057 13.3347 34.1282 13.3347C35.0915 13.3347 36.0235 12.751 36.397 11.9168L37.073 10.4095C36.2259 10.4205 35.4514 10.3131 35.4514 10.3131C35.4446 10.3118 34.8343 10.2333 34.1282 9.50791C33.6219 8.98753 32.9952 8.71221 32.3164 8.71221C32.0194 8.71221 31.754 8.76593 31.5255 8.83893C31.561 8.71637 31.5952 8.59244 31.6144 8.46443C31.8306 7.05354 30.9275 5.97705 30.9275 5.97847L29.7465 4.50688L29.0144 6.23587C29.0117 6.24139 28.8269 6.64607 28.4958 6.8443C28.3959 6.33636 28.151 5.76508 27.6269 5.21857C26.6388 4.1889 25.436 4.03616 24.8066 4.03616C24.5151 4.03616 24.3071 4.0678 24.2564 4.07608L22.8305 4.35825C22.9127 4.03751 23.0878 3.48003 23.408 2.97754L24.1949 1.74418L22.2147 1.97129L21.5839 0.623698L20.3633 1.25691L19.2344 0.13501L18.1082 1.25691L16.8834 0.623698L16.2539 1.97129L14.2752 1.74418L15.0635 2.97754C15.3837 3.48003 15.5588 4.03616 15.6395 4.35684L14.2794 4.08705L14.2328 4.07877C14.1644 4.0678 13.9578 4.03616 13.6649 4.03616C13.0355 4.03616 11.8326 4.19031 10.8473 5.21857C10.3218 5.76367 10.0769 6.33636 9.97566 6.8443C9.64726 6.64883 9.4639 6.24959 9.4639 6.24959L8.73039 4.51105L7.53031 5.99219C7.38391 6.18356 6.66004 7.19525 6.857 8.46722C6.8776 8.59387 6.91046 8.71773 6.94602 8.84023C6.71889 8.76729 6.45331 8.71364 6.15642 8.71364C5.47773 8.71364 4.85095 8.98896 4.34329 9.50927C3.63989 10.232 3.03237 10.3131 3.03782 10.3131C3.03782 10.3131 2.39596 10.4288 1.40253 10.4109L2.07449 11.9182C2.44801 12.7538 3.38131 13.336 4.34329 13.336C4.41581 13.336 4.48558 13.3264 4.55675 13.3195C3.62346 14.0023 2.65878 14.0298 2.54249 14.0312L0.941406 13.979L1.42583 15.5069C1.66939 16.2943 2.48357 17.5992 4.04357 17.7396C3.87388 18.4554 3.4976 19.2565 2.6711 19.6021L1.47923 20.0963L2.12917 21.2347C2.49589 21.8487 3.35666 22.5672 4.58274 22.5672C4.84819 22.5658 5.10407 22.5397 5.35046 22.4874C5.41335 22.7681 5.49274 23.0489 5.5858 23.327C5.95117 24.4199 5.63637 25.1826 5.63233 25.1909L5.04387 26.4311L6.35756 26.7794C6.37399 26.7849 6.77081 26.8936 7.26755 26.8936C7.4934 26.8936 7.70821 26.8703 7.91076 26.8221C8.06402 26.7862 8.21041 26.738 8.35135 26.6803C8.52104 26.9873 8.7277 27.2667 8.96856 27.5172C9.81008 28.3858 11.002 28.8263 12.5127 28.8263H12.5182L13.5965 28.8126L11.3687 29.7431L13.0601 30.5649C13.6745 30.8663 14.4039 31.2229 15.1455 31.4954L14.9348 32.0764L15.5177 32.3434C15.5698 32.3668 16.6905 32.872 18.5543 32.9793C18.5543 32.9793 19.0045 33 19.2521 33C19.4999 33 19.9446 32.978 19.9446 32.978C21.796 32.8679 22.9086 32.3681 22.9606 32.3434L23.5448 32.0749L23.3314 31.4927C24.095 31.2118 24.8504 30.8415 25.4388 30.5525L27.0986 29.7418L24.8777 28.8098L25.9602 28.8236C27.4722 28.8236 28.6655 28.383 29.5057 27.5131C29.7452 27.2639 29.9518 26.9845 30.1229 26.6776C30.2638 26.7354 30.4116 26.7835 30.5648 26.8193C30.766 26.8675 30.9808 26.8909 31.2066 26.8909C31.6951 26.8909 32.0961 26.7821 32.107 26.7794L33.4262 26.4284L32.8514 25.2115C32.8378 25.1798 32.5231 24.4186 32.8884 23.3242C32.9815 23.0448 33.0594 22.764 33.1224 22.4846C33.3701 22.5369 33.6287 22.5644 33.8956 22.5644C35.4569 22.5644 36.2055 21.459 36.3505 21.2195L36.9937 20.0935L35.8018 19.6008C34.9739 19.2552 34.5989 18.4527 34.4307 17.7383C35.9687 17.6061 36.7952 16.3011 37.047 15.5082ZM15.7436 4.8841L15.7272 4.88821L15.7408 4.8703L15.7436 4.8841Z" fill="white"/>
<path d="M19.2356 4.81659C17.9739 4.818 17.0284 5.23373 16.8218 5.72241L19.2356 6.68047L21.6495 5.72241C21.4443 5.23373 20.4987 4.818 19.2356 4.81659Z" fill="white"/>
<path d="M19.2605 30.1794H19.2577H19.2372H19.2139H19.2126C18.4476 30.1849 17.3953 30.0266 16.8876 29.878L16.2773 31.5395C16.6796 31.684 18.0426 31.9593 19.2372 31.9593C20.429 31.9593 21.7934 31.6826 22.1943 31.5395L21.5854 29.878C21.0763 30.028 20.0253 30.1849 19.2605 30.1794Z" fill="white"/>
<path d="M23.8789 28.5276C23.4245 28.7864 22.4106 29.1746 21.8208 29.355L22.3161 30.7274C23.2289 30.4768 23.9815 30.1836 24.6041 29.8698L23.5764 29.5257L23.8789 28.5276Z" fill="white"/>
<path d="M14.5939 28.5276L14.8977 29.5257L13.8687 29.8698C14.4899 30.1836 15.2466 30.4768 16.1552 30.7274L16.6506 29.355C16.0636 29.1746 15.0482 28.7851 14.5939 28.5276Z" fill="white"/>
<path d="M19.2361 3.22816C20.1871 3.22816 21.1204 3.45662 21.8374 3.85861C21.9031 3.63695 21.9948 3.36851 22.1193 3.08775L21.8484 3.12073L21.5637 3.15102L21.4433 2.89086L21.0807 2.12L20.4197 2.46693L20.1625 2.59906L19.9572 2.3953L19.2388 1.6795L18.5218 2.3953L18.3165 2.59906L18.0592 2.46693L17.3942 2.12L17.0357 2.89086L16.9125 3.15102L16.6278 3.12073L16.3569 3.08775C16.4814 3.36992 16.5718 3.63695 16.6388 3.85861C17.3572 3.45662 18.2878 3.22816 19.2361 3.22816Z" fill="white"/>
<path d="M33.756 12.1372C33.8791 12.1799 34.005 12.1991 34.1295 12.1991C34.6673 12.1991 35.1873 11.8495 35.3666 11.4489C35.3666 11.4489 34.38 11.3883 33.3195 10.3051C32.9814 9.954 32.6243 9.84937 32.3177 9.84937C31.8415 9.84937 31.4844 10.1027 31.4844 10.1027C32.7652 10.7882 33.0265 11.8894 33.756 12.1372Z" fill="white"/>
<path d="M4.34167 12.1991C4.46617 12.1991 4.59209 12.1799 4.71249 12.1372C5.44465 11.8894 5.70734 10.7882 6.98816 10.1027C6.98816 10.1027 6.62966 9.84937 6.15614 9.84937C5.84834 9.84937 5.49112 9.954 5.15173 10.3051C4.09258 11.3883 3.10596 11.4489 3.10596 11.4489C3.28252 11.8495 3.80384 12.1991 4.34167 12.1991Z" fill="white"/>
<path d="M34.1037 16.6123C34.1257 16.6136 34.1448 16.6136 34.168 16.6136C35.5105 16.6136 35.9661 15.1669 35.9661 15.1669H35.9401C35.6938 15.1669 33.6973 15.1091 32.2865 13.3044C31.3573 12.1178 30.5965 11.0744 29.0926 10.6642L28.9448 10.638L28.912 10.4866C28.8709 10.2554 29.0283 10.0393 29.3855 9.80526C31.46 8.43834 30.0519 6.69563 30.0519 6.69563C30.0519 6.69563 29.4594 8.09008 28.1333 8.09008C28.1018 8.09008 28.0677 8.08872 28.0348 8.08872C27.8843 8.08047 27.7392 8.07495 27.5928 8.04332L27.3479 7.99506C27.3479 7.99506 27.7256 6.96133 26.8142 6.01153C26.1272 5.29431 25.2911 5.17316 24.8081 5.17316C24.5645 5.17316 24.4099 5.20486 24.4099 5.20486C24.8683 5.80778 25.1995 6.80717 24.6699 7.42383C24.2128 7.95382 23.0962 7.97993 23.0962 8.7701C23.0962 9.10459 23.4068 9.49552 23.9652 9.84657C25.6442 10.9106 27.3109 12.3216 28.0033 14.2129C28.8696 16.5724 27.8938 18.1375 26.5008 19.035C26.5008 19.035 26.9374 19.4396 27.571 19.4906C27.6996 19.503 27.8254 19.5086 27.9431 19.5086C29.2801 19.5086 29.9711 18.8781 29.9711 18.8781C29.9711 18.8781 29.8575 19.7494 29.1611 20.5588C28.5193 21.3063 27.6763 21.7454 26.3913 21.7646C26.3913 21.7646 26.3503 22.3649 26.9195 22.8838C27.2836 23.2114 28.1251 23.3188 28.1251 23.3188C28.1251 23.3188 26.5501 23.6395 26.3763 25.9797C26.2819 27.2475 25.9603 27.6879 25.9603 27.6879H25.989C29.6441 27.6879 29.5496 24.5343 29.5496 24.5343C29.5496 24.5343 29.8042 25.4676 30.8237 25.7112C30.9468 25.7443 31.0782 25.7567 31.2041 25.7567C31.5325 25.7567 31.8171 25.6796 31.8171 25.6796C31.8171 25.6796 31.2834 24.5467 31.813 22.9622C32.2523 21.6477 32.1811 20.6731 32.1811 20.6731C32.1811 20.6731 32.6738 21.4219 33.8944 21.4289H33.9067C34.9235 21.4289 35.3667 20.6538 35.3667 20.6538C32.9297 19.6366 33.1705 16.3522 33.1705 16.3522C33.1705 16.3522 33.4866 16.5888 34.1037 16.6123ZM33.3703 20.0426C32.3795 19.5512 31.7528 18.2462 31.6009 17.7754C31.4367 20.3634 30.1806 22.1598 28.7122 23.8887C27.95 24.7848 27.6845 25.6561 27.6845 25.6561C27.6845 25.6561 27.831 24.6692 28.4905 23.8652C29.8603 22.2093 31.1616 20.1486 31.2588 17.7658C31.3258 16.1029 30.9003 14.7539 30.2366 13.6431C30.6074 14.8007 30.5555 16.2185 29.2951 17.5414C29.2951 17.5414 31.8035 14.5172 28.2963 11.4172C26.8922 10.2374 25.3568 9.50929 24.566 8.99307C27.4232 9.93055 28.8176 8.89812 28.8176 8.89812C27.9048 9.69381 26.7239 9.67998 25.9918 9.56573C26.1902 9.66348 26.3968 9.76532 26.6199 9.88509C29.0283 11.201 31.1932 13.3664 31.5626 16.3659V16.3425C32.1236 19.2869 33.3703 20.0426 33.3703 20.0426Z" fill="white"/>
<path d="M10.3464 23.3188C10.3464 23.3188 11.188 23.2128 11.552 22.8838C12.1199 22.3649 12.0802 21.7646 12.0802 21.7646C10.7939 21.7468 9.95235 21.3063 9.30638 20.5602C8.61537 19.7508 8.50042 18.8795 8.50042 18.8795C8.50042 18.8795 9.19144 19.5099 10.527 19.5099C10.6475 19.5099 10.772 19.5043 10.9007 19.492C11.5342 19.4411 11.9721 19.0363 11.9721 19.0363C10.5791 18.1388 9.60199 16.5724 10.4668 14.2129C11.1607 12.323 12.826 10.9106 14.505 9.84657C15.0633 9.49552 15.374 9.10595 15.374 8.7701C15.374 7.97993 14.2587 7.95382 13.8017 7.42383C13.2721 6.80717 13.6046 5.80636 14.0616 5.20486C14.0616 5.20486 13.9098 5.17316 13.6648 5.17316C13.1832 5.17316 12.347 5.29431 11.6601 6.01153C10.746 6.96133 11.125 7.99506 11.125 7.99506L10.8801 8.04332C10.7337 8.07495 10.5873 8.08047 10.4381 8.08872C10.4039 8.08872 10.3737 8.09008 10.3409 8.09008C9.01219 8.09008 8.42244 6.69704 8.42244 6.69704C8.42244 6.69704 7.01428 8.43977 9.08754 9.80663C9.44463 10.0406 9.60058 10.2568 9.55957 10.488L9.52671 10.6395L9.37621 10.6656C7.87506 11.0758 7.11287 12.1193 6.18374 13.3058C4.77558 15.1077 2.78179 15.1669 2.53278 15.1669H2.50537C2.50537 15.1669 2.96104 16.6136 4.30348 16.6136C4.32537 16.6136 4.34449 16.6136 4.36779 16.6123C4.985 16.5903 5.3025 16.3522 5.3025 16.3522C5.3025 16.3522 5.54054 19.6351 3.10616 20.6538C3.10616 20.6538 3.54951 21.4289 4.56623 21.4289H4.57849C5.80053 21.4219 6.29182 20.6731 6.29182 20.6731C6.29182 20.6731 6.22065 21.6477 6.65847 22.9622C7.18808 24.5467 6.65719 25.6796 6.65719 25.6796C6.65719 25.6796 6.94183 25.7567 7.26882 25.7567C7.39609 25.7567 7.52612 25.7443 7.64793 25.7112C8.666 25.4676 8.92189 24.5343 8.92189 24.5343C8.92189 24.5343 8.82882 27.6879 12.4839 27.6879H12.5099C12.5099 27.6879 12.1897 27.2475 12.0966 25.9797C11.9214 23.6395 10.3464 23.3188 10.3464 23.3188ZM9.75936 23.8887C8.29107 22.1598 7.03624 20.3634 6.87065 17.7754C6.71874 18.2449 6.09472 19.5512 5.10406 20.0426C5.10406 20.0426 6.34926 19.2869 6.90897 16.3425V16.3659C7.2798 13.3677 9.44328 11.201 11.8531 9.88509C12.0733 9.76402 12.2827 9.66205 12.4798 9.56573C11.7476 9.67998 10.5667 9.69381 9.65405 8.89812C9.65405 8.89812 11.0485 9.93055 13.9042 8.99307C13.1133 9.50929 11.5794 10.2374 10.1754 11.4172C6.66676 14.5172 9.17642 17.5414 9.17642 17.5414C7.91472 16.2173 7.86408 14.8007 8.23498 13.6431C7.56988 14.7553 7.14566 16.1029 7.21408 17.7658C7.3099 20.1486 8.61126 22.2093 9.97834 23.8652C10.6393 24.6678 10.7884 25.6561 10.7884 25.6561C10.7884 25.6561 10.5201 24.7848 9.75936 23.8887Z" fill="white"/>
<path d="M16.5336 11.7888C16.5938 11.8535 16.6525 11.9238 16.7087 11.9939C16.7224 12.0105 16.7347 12.0256 16.7484 12.0449C16.8004 12.1151 16.8538 12.1894 16.9044 12.2651C16.9153 12.2803 16.9263 12.2982 16.9386 12.3161C17.0002 12.4096 17.0576 12.506 17.1152 12.6051C17.642 13.5206 18.4863 14.067 19.2348 14.0685C19.9847 14.067 20.8263 13.5206 21.3559 12.6051C21.4146 12.5033 21.4735 12.4042 21.5351 12.3119C21.5447 12.2982 21.5543 12.2858 21.5625 12.272C21.6144 12.1936 21.6692 12.1165 21.7267 12.0421C21.739 12.0256 21.75 12.0118 21.7609 11.9981C21.8197 11.9251 21.8799 11.8535 21.9415 11.7875C21.9525 11.7765 21.9607 11.7668 21.9702 11.7586C22.2385 11.4819 22.5587 11.2713 22.9774 11.1542L22.7913 11.0455H22.7803L22.0387 10.6119L21.2765 10.1728L19.2403 11.2878L19.2348 11.2836L19.2307 11.2878L17.1931 10.1728L16.4323 10.6105L15.6892 11.0442H15.6811L15.4922 11.1529C15.9122 11.2699 16.2311 11.4778 16.5007 11.7544C16.513 11.7655 16.5212 11.7779 16.5336 11.7888ZM18.4111 11.6994H19.2731H20.1338V12.2941C19.9313 12.0449 19.5372 12.0958 19.5372 12.0958V12.9534C19.5372 12.9534 19.5523 13.3747 19.6987 13.5578H19.2731H18.8462C18.9953 13.376 19.009 12.9534 19.009 12.9534V12.0958C19.009 12.0958 18.6163 12.0449 18.4111 12.2941V11.6994Z" fill="white"/>
<path d="M19.0592 10.5458V7.06449L16.856 6.31287L17.4376 9.68675L19.0592 10.5458ZM18.5857 7.91928V8.47817L18.4789 8.42862C18.4734 8.42446 18.3174 8.38874 18.0438 8.17122C17.5922 7.81881 17.584 7.49393 17.584 7.49393L18.5857 7.91928Z" fill="white"/>
<path d="M21.035 9.68675L21.6139 6.31287L19.4121 7.06449V10.5458L21.035 9.68675ZM19.8856 7.91928L20.8872 7.49536C20.8872 7.49536 20.8791 7.82017 20.4261 8.17259C20.1538 8.39003 19.9964 8.42589 19.9909 8.42998L19.8842 8.47953V7.91928H19.8856Z" fill="white"/>
<path d="M15.9428 18.6165C16.1576 18.695 16.4177 18.7115 16.5504 18.7115C16.5558 18.695 16.5627 18.6744 16.5696 18.6495C16.5819 18.6097 16.5928 18.5711 16.601 18.5271C16.6379 18.3343 16.6517 18.1155 16.6543 17.975C16.564 17.9186 16.4368 17.8181 16.3656 17.6681C16.2835 17.4946 16.1672 17.4148 15.9961 17.4148C15.7745 17.4148 15.5364 17.5483 15.4351 17.6116C15.3544 18.0921 15.706 18.5284 15.9428 18.6165Z" fill="white"/>
<path d="M20.8163 16.7689C20.4071 17.2163 19.6066 17.9954 19.5669 18.0354L19.519 18.0849L16.9889 18.045C16.9874 18.2969 16.9464 18.5116 16.9067 18.6686C16.8999 18.6947 16.893 18.7223 16.8862 18.7498L19.8967 19.2936C20.2101 19.0733 21.0722 18.4401 21.4061 18.1924C21.1624 17.8344 21.1393 17.4104 21.194 17.1117C21.0352 17.0085 20.9134 16.8928 20.8163 16.7689Z" fill="white"/>
<path d="M21.1593 13.7078C20.5764 14.29 20.0167 14.5048 19.5173 14.5543C19.4269 14.5639 19.3353 14.5695 19.2422 14.5695H19.2354H19.2298C19.1368 14.5695 19.0438 14.5639 18.9535 14.5543C18.8659 14.5461 18.7742 14.5323 18.6825 14.5116C18.6497 14.6425 18.6086 14.9163 18.7264 15.1752C18.8317 15.4105 19.0465 15.5854 19.3599 15.701L19.4653 15.7422L19.4667 15.8566C19.4667 15.891 19.4912 16.6315 20.2945 16.8366C20.4259 16.7004 20.5449 16.5778 20.6325 16.476C20.4683 16.0878 20.5545 15.6914 20.7926 15.4973C20.7816 15.5386 20.6777 16.5104 21.4522 16.871L21.5794 16.9316L21.5411 17.0679C21.5288 17.1092 21.2702 18.0494 22.2076 18.399L22.3732 18.4624L22.2993 18.6248C22.2829 18.6605 21.9147 19.514 22.7809 19.9986H24.6597V18.4981C23.992 18.4155 23.7087 17.876 23.6362 17.4933C23.3255 17.4396 23.0848 17.3047 22.9205 17.0844C22.5264 16.5627 22.8658 16.085 22.8699 16.0589C22.8685 16.063 22.8699 16.5724 23.1819 16.8862C23.3365 17.0376 23.5199 17.1546 23.7977 17.1808L23.9345 17.1932L23.9468 17.3336C23.9496 17.3638 24.0248 18.0522 24.6611 18.1609L24.6597 15.0966C24.6597 14.6218 24.798 14.1442 24.9636 13.7036H21.1593V13.7078Z" fill="white"/>
<path d="M16.1033 15.1117L16.0527 17.0636L16.273 17.0967L16.8122 15.2246L16.5384 14.6492L16.1033 15.1117Z" fill="white"/>
<path d="M22.0482 24.0634C22.0646 24.0634 22.0838 24.0662 22.1016 24.0704C22.4368 24.1667 22.5217 25.3836 23.1101 25.4924C23.1676 25.5047 23.2209 25.5075 23.2675 25.5075C23.4372 25.5075 23.5384 25.4345 23.6479 25.305C23.6479 25.305 23.3523 24.837 23.1307 24.5218C22.8364 24.1089 22.6079 23.6092 22.0605 23.6092C22.0482 23.6092 22.0318 23.6092 22.0181 23.6106C21.8374 23.6202 21.7267 23.7083 21.7267 23.7083C21.5049 23.5678 21.2983 23.5197 21.1109 23.5197C20.7674 23.5197 20.5005 23.678 20.3678 23.678H20.3623L19.139 23.5569C18.9474 23.539 18.7969 23.3449 18.7421 23.2692C18.7284 23.2486 18.7215 23.2362 18.7215 23.2362C18.7215 23.2031 18.7215 23.1687 18.7188 23.1384C18.6778 22.1321 17.9033 21.7013 17.6282 21.6944C17.6282 21.6944 17.661 21.503 17.5858 21.4301L17.3162 21.7591L16.4309 21.3118L17.0617 22.0537L16.5266 22.658C16.4596 22.7268 16.4678 22.8204 16.4952 22.859L16.7265 23.0641L17.0192 22.8851C17.0343 22.8741 17.0603 22.8714 17.0931 22.8714C17.1739 22.8714 17.2957 22.892 17.4052 22.892C17.5242 22.892 17.6282 22.8659 17.6406 22.753C17.6036 23.1261 17.2601 23.7744 17.4859 24.2837L17.6529 24.6678L16.5718 24.5108L16.0655 25.3712C15.9095 25.6575 15.8848 25.9672 16.0354 26.1352L16.2243 26.3733C16.2243 26.3733 16.4897 26.0898 16.5499 25.9039L16.4637 25.8089C16.3911 25.7291 16.3953 25.6575 16.4391 25.5708L16.7565 25.0408L18.0333 25.3436L18.1003 25.228C18.1865 25.0835 18.311 25.0395 18.4479 25.0395C18.504 25.0395 18.5615 25.0464 18.6217 25.056C18.8584 25.1027 19.2485 25.1661 19.6384 25.1661C20.0667 25.1661 20.491 25.089 20.7167 24.8343C21.1792 25.524 22.1166 25.6341 22.0428 25.9837L21.7964 27.1648C21.9593 27.1579 22.1166 27.1469 22.2658 27.1263L22.4998 25.897C22.5258 25.7635 22.5504 25.5832 22.5504 25.5832C22.4601 25.4909 22.2411 25.2954 22.118 25.0587C21.9524 24.7393 22.0428 24.5728 21.8881 24.1571C21.8936 24.1598 21.9401 24.0634 22.0482 24.0634ZM17.2724 22.3373C17.2095 22.336 17.1643 22.2822 17.1671 22.2188C17.1726 22.1583 17.2231 22.1102 17.2848 22.1156C17.3477 22.1184 17.3928 22.1734 17.3901 22.234C17.3846 22.2946 17.3326 22.3413 17.2724 22.3373Z" fill="white"/>
<path d="M15.5288 25.1812C15.5288 25.1812 15.9517 25.0064 15.99 24.8812L15.9339 24.7393C15.8942 24.6471 15.8997 24.5466 15.9763 24.4915L16.4333 24.1735L17.1969 24.3208C17.1969 24.3208 17.0587 24.1474 17.0724 23.9148L16.3444 23.7592L15.6575 24.1804C15.3633 24.4021 15.3414 24.764 15.4385 24.9789L15.5288 25.1812Z" fill="white"/>
<path d="M20.9253 27.1826C21.0621 27.1771 21.2126 27.1743 21.3783 27.1743C21.3783 27.1743 21.771 26.0195 21.7929 25.9823C21.5725 25.8846 21.1155 25.6409 20.939 25.5294C21.0553 25.7043 21.3385 25.9052 21.2824 26.0594L20.9253 27.1826Z" fill="white"/>
<path d="M24.6642 20.3331H13.8086V24.4407C13.8086 26.1201 15.0169 27.1718 16.7999 27.1718C18.2902 27.1718 18.6829 27.2295 19.2371 27.7829C19.6189 27.4003 19.935 27.257 20.5836 27.2034L20.5987 27.1401L20.9408 26.076C20.9216 26.0526 20.3619 25.4125 20.3619 25.4125C20.1403 25.4869 19.9541 25.4993 19.6408 25.4993C19.3192 25.4993 18.9565 25.4621 18.5638 25.3877C18.5242 25.3781 18.4873 25.3753 18.4502 25.3753C18.4024 25.3753 18.3982 25.3795 18.3859 25.4029L18.3175 25.5158L18.193 25.7223L17.959 25.6686L16.9176 25.4222L16.7753 25.6589L16.7972 25.6837L16.9244 25.8241L16.8684 26.0072C16.7918 26.2467 16.5427 26.5261 16.4674 26.6033L16.2074 26.884L15.9707 26.5826L15.7928 26.3582C15.6054 26.1477 15.5615 25.8241 15.6669 25.4855C15.6641 25.4882 15.6601 25.4896 15.6559 25.4896L15.3617 25.6121L15.229 25.3231L15.1359 25.1179C14.9758 24.7573 15.0347 24.2301 15.4657 23.9121L16.3046 23.4358L17.1024 23.5941C17.1215 23.5171 17.1503 23.2418 17.1735 23.1715C17.1584 23.1701 17.1434 23.166 17.1284 23.166L16.6685 23.3381L16.2252 23.0297C16.2252 23.0297 16.0515 22.8618 16.2088 22.6938L16.6384 22.04L15.5506 20.6662L17.2228 21.3572L17.3336 21.2182L17.5594 20.947L17.8153 21.192C17.8879 21.2622 17.9289 21.349 17.9494 21.4357C18.4106 21.616 19.2357 22.1487 19.3082 23.0146L19.0496 23.1192V23.1261C19.1085 23.1963 19.1577 23.2252 19.1728 23.2279L20.366 23.3464C20.3961 23.3409 20.4345 23.327 20.4769 23.3146C20.6247 23.2638 20.8477 23.1908 21.1119 23.1908C21.3267 23.1908 21.5347 23.2403 21.7344 23.334C21.8083 23.3064 21.8986 23.2858 22.0027 23.2789L22.0601 23.2775C22.6992 23.2775 23.0166 23.7579 23.2712 24.1406C23.3136 24.2066 23.356 24.27 23.3999 24.3319C23.6229 24.6486 23.9143 25.1124 23.9266 25.1318L24.058 25.3382L23.8965 25.5268C23.772 25.6713 23.5859 25.8406 23.2657 25.8406C23.2 25.8406 23.1275 25.8337 23.0495 25.8186C22.981 25.8062 22.9195 25.7856 22.8593 25.7608C22.8497 25.8241 22.8374 25.8999 22.8251 25.9646L22.6157 27.063C23.8679 26.7533 24.6629 25.8021 24.6629 24.4421L24.6642 20.3331Z" fill="#FFDD2D"/>
<path d="M13.8084 20.0028H22.2501C21.8286 19.5651 21.8341 19.0104 21.9422 18.6497C21.819 18.5906 21.7178 18.5189 21.6275 18.4418C21.2977 18.6869 20.2905 19.4247 20.0278 19.6092L19.9717 19.6477L16.6587 19.0447H16.5916C16.5123 19.0447 16.396 19.042 16.2688 19.0269C16.2331 19.1769 16.1045 19.2802 15.9567 19.2802C15.9403 19.2802 15.9212 19.2788 15.9034 19.2747C15.8172 19.2595 15.7418 19.2155 15.6913 19.1425C15.6392 19.0709 15.6188 18.9856 15.6338 18.8975L15.6461 18.8259C15.304 18.5836 14.9893 18.0426 15.1289 17.4728L15.1425 17.4122L15.1904 17.3778C15.1972 17.3722 15.2547 17.3338 15.3396 17.2842L15.0988 17.247C15.0084 17.2305 14.9482 17.1465 14.9619 17.057C14.977 16.9662 15.0618 16.9015 15.1508 16.9194L15.7241 17.0103L15.7761 14.9785L16.63 14.0699L17.1623 15.1974L16.5999 17.152L17.1062 17.2318C17.1952 17.2457 17.2567 17.3296 17.2431 17.4218C17.2293 17.5031 17.161 17.5594 17.0802 17.5594C17.072 17.5594 17.0624 17.5594 17.0543 17.5581L16.6423 17.4906C16.6478 17.503 16.656 17.5099 16.6615 17.5237C16.7053 17.6145 16.8024 17.6806 16.8599 17.7082L19.3859 17.748C19.4927 17.6435 19.7582 17.3819 20.0305 17.1052C19.4092 16.8684 19.1835 16.3288 19.1451 15.971C18.7976 15.8222 18.5581 15.5993 18.4254 15.3089C18.2638 14.9496 18.3214 14.5903 18.3638 14.4154C18.0271 14.2916 17.6727 14.0658 17.3115 13.7051H13.5073C13.6701 14.1456 13.8084 14.6233 13.8084 15.0982V20.0028Z" fill="#FFDD2D"/>
<path d="M17.2854 22.1156C17.2238 22.1101 17.1718 22.1583 17.1677 22.2189C17.1636 22.2821 17.2101 22.3358 17.2731 22.3372C17.3333 22.3427 17.3866 22.2959 17.3921 22.234C17.3921 22.1734 17.3483 22.117 17.2854 22.1156Z" fill="#222222"/>
<path d="M24.6491 29.564L24.0237 29.3231L24.1961 28.6733L24.3863 27.9645C24.3863 27.9645 23.2779 28.5687 21.7165 29.023C21.2732 29.151 20.9379 29.2088 20.9379 29.2088V29.6906C20.9379 29.6906 20.1031 29.8366 19.2589 29.8366H19.2493H19.237H19.2206H19.211C18.3666 29.8366 17.532 29.6906 17.532 29.6906V29.2088C17.532 29.2088 17.1953 29.151 16.7533 29.023C15.1919 28.5687 14.0849 27.9645 14.0849 27.9645L14.2724 28.6733L14.4489 29.3231L13.8221 29.564L13.127 29.8255C13.9248 30.2124 15.0291 30.7767 16.0404 31.0548L15.8023 31.71C15.8023 31.71 17.0844 32.2978 19.2206 32.3033V32.3047H19.2274H19.237H19.2452H19.2507V32.3033C21.3895 32.2978 22.6703 31.71 22.6703 31.71L22.4308 31.0548C23.4421 30.7767 24.5491 30.2124 25.3428 29.8255L24.6491 29.564ZM13.8687 29.8696L14.8977 29.5254L14.594 28.5275C15.0469 28.7862 16.0636 29.1744 16.652 29.3547L16.1553 30.7272C15.2467 30.4753 14.4899 30.182 13.8687 29.8696ZM19.237 31.9592C18.0424 31.9592 16.678 31.6824 16.2771 31.5393L16.8874 29.8778C17.3937 30.0265 18.4474 30.1848 19.2123 30.1793H19.2137H19.237H19.2575H19.2602C20.0252 30.1848 21.0761 30.0265 21.5851 29.8778L22.1941 31.5393C21.7931 31.6839 20.4302 31.9592 19.237 31.9592ZM22.3159 30.7272L21.8205 29.3547C22.4104 29.1744 23.4243 28.7862 23.8786 28.5275L23.5762 29.5254L24.6039 29.8696C23.9812 30.182 23.2286 30.4753 22.3159 30.7272Z" fill="#222222"/>
<path d="M19.2354 3.63011C20.5081 3.63011 21.5262 4.05404 22.0886 4.50691C22.0886 4.50691 22.2555 3.49521 22.8262 2.60184L21.8012 2.71884L21.2648 1.57217L20.2344 2.10622L19.2354 1.11243L18.2392 2.10622L17.2075 1.57217L16.6724 2.71884L15.6475 2.60184C16.2181 3.49521 16.3851 4.50691 16.3851 4.50691C16.9488 4.05404 17.9642 3.63011 19.2354 3.63011ZM16.6259 3.12075L16.9105 3.15105L17.0337 2.89089L17.3922 2.12002L18.0573 2.46554L18.3145 2.59767L18.5198 2.39399L19.2368 1.67819L19.9552 2.39399L20.1605 2.59767L20.4177 2.46554L21.0787 2.12002L21.4413 2.89089L21.5618 3.15105L21.8464 3.12075L22.1173 3.0877C21.9928 3.36995 21.9012 3.63697 21.8354 3.85856C21.1184 3.45665 20.1851 3.22811 19.2341 3.22811C18.2871 3.22811 17.3552 3.45665 16.6355 3.85856C16.5684 3.63697 16.4781 3.36853 16.3536 3.0877L16.6259 3.12075Z" fill="#222222"/>
<path d="M34.166 17.0556C35.8122 17.0556 36.3622 15.3706 36.3855 15.2991L36.5689 14.7058L35.9518 14.725H35.949C35.7314 14.725 33.9156 14.6769 32.6278 13.0305L32.506 12.8777C31.6645 11.8013 30.8667 10.7785 29.4408 10.3119C29.4819 10.2747 29.5408 10.2279 29.6215 10.1756C30.3782 9.67452 30.8188 9.06608 30.9297 8.35995C31.0911 7.29718 30.4179 6.45068 30.3877 6.4162L29.9294 5.84634L29.6434 6.52222C29.6243 6.5649 29.1425 7.64687 28.1299 7.64687H28.0546C27.9849 7.64271 27.9192 7.63992 27.8535 7.63447C27.889 7.15131 27.8014 6.40382 27.1283 5.70317C26.3195 4.85934 25.326 4.73273 24.806 4.73273C24.5282 4.73273 24.3435 4.76712 24.3243 4.76988L23.6319 4.90754L24.0588 5.4733C24.3942 5.90968 24.6979 6.71494 24.338 7.13618C24.2231 7.26964 23.9864 7.37844 23.7592 7.48716C23.2925 7.70331 22.6562 8.00338 22.6562 8.76881C22.6562 9.2643 23.0381 9.78188 23.7305 10.2224C25.7803 11.5191 27.0448 12.8722 27.5907 14.3658C28.4351 16.6633 27.3334 17.9737 26.2634 18.6634L25.7831 18.9745L26.2032 19.3626C26.2593 19.4122 26.7738 19.8679 27.5332 19.9338C27.6769 19.9435 27.8152 19.9518 27.9438 19.9518C28.431 19.9518 28.8456 19.8747 29.1823 19.7715C29.0892 19.9353 28.9756 20.1018 28.8319 20.2698C28.2202 20.9828 27.4676 21.3077 26.3851 21.3242L25.9829 21.3311L25.9514 21.7372C25.9473 21.8183 25.9171 22.5714 26.626 23.2114C26.7341 23.3106 26.8654 23.3917 27.0023 23.4592C26.522 23.8942 26.0335 24.6513 25.9391 25.9494C25.8597 27.0327 25.6025 27.4333 25.5997 27.4374L25.1549 28.1202L25.9583 28.1312C27.2856 28.1312 28.3023 27.7623 29.007 27.0327C29.423 26.6005 29.6612 26.1132 29.8021 25.681C30.0333 25.8792 30.3317 26.0527 30.7203 26.1449C30.8681 26.1792 31.0296 26.1986 31.2034 26.1986C31.5783 26.1986 31.8916 26.1187 31.9273 26.1105L32.4404 25.9728L32.2132 25.491C32.1968 25.4525 31.7686 24.4861 32.2297 23.1068C32.4281 22.5108 32.5293 21.9767 32.5786 21.561C32.9016 21.7303 33.3339 21.8707 33.8937 21.8721C35.1635 21.8721 35.7233 20.9181 35.7492 20.8782L35.9996 20.4405L35.5357 20.2477C34.0223 19.6159 33.6871 17.9186 33.62 16.9991C33.7568 17.0252 33.9128 17.05 34.0893 17.0556H34.166ZM35.3661 20.6539C35.3661 20.6539 34.9227 21.4288 33.906 21.4288H33.8937C32.673 21.422 32.1804 20.6731 32.1804 20.6731C32.1804 20.6731 32.2516 21.6477 31.8109 22.9622C31.2814 24.5467 31.815 25.6796 31.815 25.6796C31.815 25.6796 31.5304 25.7567 31.202 25.7567C31.0761 25.7567 30.9447 25.7443 30.8216 25.7112C29.8021 25.4676 29.5476 24.5343 29.5476 24.5343C29.5476 24.5343 29.642 27.688 25.987 27.688H25.9583C25.9583 27.688 26.2798 27.2475 26.3756 25.9797C26.5494 23.6395 28.1245 23.3188 28.1245 23.3188C28.1245 23.3188 27.2842 23.2128 26.9202 22.8838C26.351 22.3648 26.3906 21.7647 26.3906 21.7647C27.6769 21.7468 28.5186 21.3063 29.1603 20.5589C29.8555 19.7495 29.9704 18.8781 29.9704 18.8781C29.9704 18.8781 29.2794 19.5086 27.9424 19.5086C27.8247 19.5086 27.6988 19.503 27.5703 19.4906C26.938 19.4397 26.5001 19.035 26.5001 19.035C27.8918 18.1375 28.8688 16.571 28.0026 14.2116C27.3089 12.3216 25.6421 10.9092 23.9645 9.84514C23.4061 9.49423 23.0955 9.10459 23.0955 8.76881C23.0955 7.97857 24.2121 7.95382 24.6705 7.42247C25.1988 6.80581 24.8676 5.80501 24.4092 5.20351C24.4092 5.20351 24.5639 5.1718 24.8074 5.1718C25.2904 5.1718 26.1266 5.29431 26.8135 6.01018C27.7262 6.95997 27.3472 7.99377 27.3472 7.99377L27.5922 8.04196C27.7385 8.07359 27.8836 8.07911 28.0342 8.08593C28.067 8.08593 28.0997 8.08736 28.1326 8.08736C29.4586 8.08736 30.0511 6.69293 30.0511 6.69293C30.0511 6.69293 31.4606 8.43698 29.3861 9.80254C29.0289 10.0366 28.8716 10.2527 28.9126 10.4839L28.9454 10.6353L29.0932 10.6615C30.5971 11.0717 31.358 12.1151 32.2872 13.3017C33.698 15.1064 35.6945 15.1642 35.9408 15.1642H35.9668C35.9668 15.1642 35.5112 16.6109 34.1687 16.6109C34.1468 16.6109 34.1277 16.6109 34.1044 16.6095C33.4872 16.5875 33.1711 16.3494 33.1711 16.3494C33.1711 16.3494 32.9289 19.6352 35.3661 20.6539Z" fill="#222222"/>
<path d="M31.2753 10.4935C31.8897 10.8224 32.2468 11.263 32.5602 11.6539C32.8681 12.0352 33.1609 12.4028 33.618 12.5555C33.7808 12.612 33.9533 12.6381 34.1285 12.6381C34.8154 12.6381 35.505 12.2155 35.7664 11.6305L36.0292 11.0441L35.3928 11.0055C35.3627 11.0042 34.5444 10.9298 33.6331 9.99243C33.258 9.60832 32.8052 9.40601 32.3166 9.40601C31.72 9.40601 31.278 9.70607 31.2288 9.73634L30.6431 10.1507L31.2753 10.4935ZM32.318 9.84922C32.6245 9.84922 32.9817 9.95385 33.3197 10.3049C34.3802 11.3882 35.3668 11.4488 35.3668 11.4488C35.1875 11.848 34.6676 12.199 34.1297 12.199C34.0052 12.199 33.8807 12.1797 33.7562 12.1371C33.0269 11.8893 32.7655 10.7881 31.4832 10.1025C31.4832 10.1025 31.8417 9.84922 32.318 9.84922Z" fill="#222222"/>
<path d="M31.5626 16.3425V16.3644C31.1932 13.3663 29.0283 11.2011 26.6199 9.88363C26.3968 9.76393 26.1916 9.66209 25.9919 9.56434C26.7253 9.67859 27.9062 9.69236 28.8176 8.89673C28.8176 8.89673 27.4232 9.9291 24.5659 8.99168C25.3569 9.5079 26.8936 10.2361 28.2962 11.4158C31.8035 14.5157 29.2937 17.5401 29.2937 17.5401C30.5541 16.2172 30.6061 14.7993 30.2352 13.6417C30.8989 14.7525 31.3232 16.1016 31.2574 17.7644C31.1603 20.1472 29.859 22.2079 28.4891 23.8639C27.831 24.6677 27.6832 25.6547 27.6832 25.6547C27.6832 25.6547 27.9486 24.7834 28.7108 23.8873C30.1792 22.1583 31.4339 20.362 31.5982 17.774C31.7501 18.2435 32.3755 19.5498 33.3675 20.0412C33.3703 20.0426 32.1237 19.2869 31.5626 16.3425Z" fill="#222222"/>
<path d="M12.8713 27.4358C12.8698 27.4317 12.6154 27.0311 12.5333 25.9478C12.4374 24.6497 11.9503 23.8926 11.4686 23.4576C11.6082 23.3916 11.7368 23.3103 11.8449 23.2098C12.5524 22.5697 12.5223 21.8168 12.5182 21.7355L12.4909 21.3294L12.0858 21.3226C11.0061 21.3047 10.2521 20.9798 9.6404 20.2681C9.49812 20.1002 9.38311 19.9337 9.29005 19.7698C9.62673 19.8731 10.0386 19.9501 10.5271 19.9501C10.6585 19.9501 10.794 19.9419 10.9377 19.9323C11.6971 19.8662 12.2117 19.412 12.2691 19.361L12.6892 18.9729L12.2089 18.6617C11.1348 17.9707 10.0372 16.6603 10.8802 14.3641C11.4262 12.8706 12.6892 11.5175 14.7418 10.2207C15.4342 9.78026 15.8134 9.26268 15.8134 8.76711C15.8134 8.00182 15.1784 7.70032 14.7118 7.4856C14.4847 7.37681 14.2479 7.26808 14.1329 7.13455C13.7717 6.7147 14.0768 5.90803 14.4107 5.47165L14.8404 4.90588L14.1453 4.76824C14.1247 4.76554 13.9427 4.73108 13.6635 4.73108C13.1436 4.73108 12.1528 4.85776 11.3427 5.70159C10.6681 6.40359 10.5792 7.15111 10.6134 7.63284C10.5476 7.63836 10.4821 7.64116 10.4136 7.64524H10.3397C9.32432 7.64524 8.84401 6.56325 8.82488 6.52057L8.53883 5.84469L8.07629 6.41463C8.0503 6.44902 7.3743 7.29699 7.53854 8.35826C7.64803 9.06445 8.08861 9.6729 8.84535 10.174C8.9275 10.2263 8.98494 10.273 9.02602 10.3102C7.60143 10.7768 6.80509 11.801 5.96344 12.8775L5.8417 13.0303C4.55542 14.6766 2.73542 14.7248 2.51786 14.7248L1.89795 14.7056L2.08676 15.2989C2.10865 15.3704 2.65738 17.0553 4.30499 17.0553L4.38432 17.0526C4.55811 17.047 4.71413 17.0237 4.85372 16.9961C4.78524 17.9142 4.45004 19.6116 2.93515 20.2448L2.47267 20.4375L2.7231 20.8752C2.74775 20.9151 3.3088 21.8691 4.58141 21.8691C5.13695 21.8676 5.56932 21.7273 5.89368 21.558C5.94298 21.9737 6.04418 22.5078 6.24262 23.1038C6.70375 24.4832 6.27414 25.4495 6.25771 25.488L6.03058 25.9698L6.54504 26.1075C6.57924 26.1157 6.89539 26.1956 7.26891 26.1956C7.44406 26.1956 7.6056 26.1763 7.75065 26.1419C8.1406 26.0497 8.44166 25.8762 8.67021 25.678C8.8098 26.1102 9.04932 26.5975 9.46384 27.0297C10.17 27.7593 11.1853 28.1282 12.5127 28.1282L13.3174 28.1172L12.8713 27.4358ZM12.4826 27.6877C8.82757 27.6877 8.92063 24.534 8.92063 24.534C8.92063 24.534 8.6661 25.4673 7.64661 25.711C7.5248 25.744 7.39484 25.7564 7.26764 25.7564C6.93916 25.7564 6.65588 25.6794 6.65588 25.6794C6.65588 25.6794 7.1869 24.5464 6.65729 22.962C6.21939 21.6474 6.2905 20.6728 6.2905 20.6728C6.2905 20.6728 5.79928 21.4217 4.5773 21.4286H4.56498C3.54825 21.4286 3.10484 20.6535 3.10484 20.6535C5.54063 19.6363 5.30118 16.3519 5.30118 16.3519C5.30118 16.3519 4.9851 16.5886 4.36654 16.612C4.34465 16.6134 4.32412 16.6134 4.30223 16.6134C2.95845 16.6134 2.50412 15.1666 2.50412 15.1666H2.53146C2.77919 15.1666 4.77299 15.1089 6.18384 13.3042C7.11296 12.1177 7.87515 11.0756 9.37637 10.664L9.52687 10.6378L9.55967 10.4865C9.60074 10.2552 9.44472 10.0391 9.08763 9.805C7.01303 8.43808 8.42254 6.69545 8.42254 6.69545C8.42254 6.69545 9.01228 8.08846 10.3411 8.08846C10.3738 8.08846 10.404 8.08716 10.4382 8.08716C10.5874 8.07885 10.7352 8.07332 10.8802 8.0417L11.1251 7.9935C11.1251 7.9935 10.7461 6.9597 11.6602 6.00988C12.3472 5.29273 13.1833 5.17157 13.6649 5.17157C13.9099 5.17157 14.0618 5.20328 14.0618 5.20328C13.6047 5.80619 13.2736 6.80558 13.8018 7.42221C14.2588 7.95226 15.3741 7.97837 15.3741 8.76848C15.3741 9.10303 15.0634 9.49396 14.5051 9.84495C12.8261 10.909 11.1593 12.3213 10.4669 14.2114C9.60209 16.5708 10.5778 18.1359 11.9722 19.0348C11.9722 19.0348 11.5343 19.4395 10.9008 19.4904C10.7721 19.5028 10.6476 19.5083 10.5271 19.5083C9.19153 19.5083 8.50052 18.8778 8.50052 18.8778C8.50052 18.8778 8.61546 19.7492 9.30648 20.5586C9.95245 21.3061 10.794 21.7466 12.0803 21.7644C12.0803 21.7644 12.1214 22.3646 11.5521 22.8836C11.1867 23.2112 10.3465 23.3185 10.3465 23.3185C10.3465 23.3185 11.9229 23.6393 12.0953 25.9795C12.1898 27.2472 12.5086 27.6877 12.5086 27.6877H12.4826Z" fill="#222222"/>
<path d="M4.34182 12.6396C4.51831 12.6396 4.69076 12.6135 4.85365 12.5571C5.31336 12.4043 5.60487 12.0367 5.91273 11.6555C6.22747 11.2645 6.58187 10.8241 7.19632 10.495L7.82849 10.1536L7.2415 9.73927C7.19221 9.70764 6.75156 9.40894 6.15629 9.40894C5.66641 9.40894 5.21216 9.60996 4.8385 9.99536C3.92722 10.9314 3.11029 11.0071 3.08012 11.0085L2.44385 11.0457L2.70518 11.6334C2.96793 12.2157 3.65619 12.6396 4.34182 12.6396ZM5.15196 10.3065C5.49134 9.95542 5.84843 9.85085 6.15629 9.85085C6.62974 9.85085 6.98838 10.1041 6.98838 10.1041C5.70749 10.791 5.44474 11.8908 4.71265 12.1386C4.59225 12.1813 4.46633 12.2006 4.34182 12.2006C3.804 12.2006 3.28402 11.851 3.10611 11.4504C3.10611 11.449 4.09139 11.3884 5.15196 10.3065Z" fill="#222222"/>
<path d="M7.21404 17.7659C7.14556 16.103 7.56978 14.754 8.23481 13.6431C7.86398 14.8007 7.91462 16.2186 9.17632 17.5415C9.17632 17.5415 6.66665 14.5172 10.1753 11.4173C11.5793 10.2375 13.1146 9.5093 13.9041 8.99309C11.0484 9.93057 9.65394 8.89813 9.65394 8.89813C10.5652 9.69376 11.7462 9.68006 12.4797 9.56438C12.2812 9.66213 12.0733 9.76397 11.8529 9.88381C9.44183 11.2011 7.27834 13.3664 6.90752 16.3645V16.3411C6.34781 19.2855 5.10254 20.0413 5.10254 20.0413C6.09334 19.5498 6.71729 18.2449 6.8692 17.774C7.03479 20.362 8.28955 22.1584 9.75791 23.8873C10.5201 24.7834 10.7883 25.6548 10.7883 25.6548C10.7883 25.6548 10.6392 24.6678 9.97817 23.8639C8.61116 22.2107 7.30979 20.1486 7.21404 17.7659Z" fill="#222222"/>
<path d="M18.4106 11.6993V12.2941C18.6146 12.0449 19.0087 12.0959 19.0087 12.0959V12.9534C19.0087 12.9534 18.995 13.3746 18.8458 13.5577H19.2728H19.6984C19.5519 13.3761 19.5369 12.9534 19.5369 12.9534V12.0959C19.5369 12.0959 19.931 12.0449 20.1335 12.2941V11.6993H19.2728H18.4106Z" fill="#222222"/>
<path d="M18.0438 8.17259C18.3161 8.39017 18.4735 8.42589 18.479 8.43005L18.5857 8.4796V7.91935L17.584 7.49536C17.584 7.49672 17.5935 7.82024 18.0438 8.17259Z" fill="#222222"/>
<path d="M20.4263 8.17259C20.8792 7.82024 20.8875 7.49536 20.8875 7.49536L19.8857 7.91935V8.4796L19.9911 8.43005C19.998 8.42589 20.1539 8.39017 20.4263 8.17259Z" fill="#222222"/>
<path d="M22.2311 5.89172C22.2311 5.04244 20.8093 4.27844 19.2397 4.27844H19.2383H19.2342H19.2301C17.6606 4.27844 16.2388 5.04244 16.2388 5.89172L16.2702 6.10099L16.8969 9.7199L16.2675 10.0874L14.6391 11.0442H14.6446C14.6446 11.0442 14.2779 11.2328 14.1082 11.3497C13.4883 11.7833 13.3569 12.4152 13.7168 12.6767C13.8058 12.1619 14.2107 11.6223 14.9689 11.6223C15.5149 11.6223 15.9309 11.9059 16.2675 12.3313C16.3537 12.4386 16.4358 12.5528 16.5125 12.6767C16.6069 12.8323 16.7013 12.9685 16.7957 13.1007H12.6016C12.9094 13.7242 13.2022 14.385 13.2022 15.1022V24.4407C13.2022 26.701 14.9306 27.7802 16.7998 27.7802C18.2448 27.7802 18.4392 27.7141 19.2369 28.5125C20.0306 27.7127 20.225 27.7802 21.6713 27.7802C23.542 27.7802 25.2675 26.701 25.2675 24.4407V15.1022C25.2675 14.385 25.5604 13.7242 25.8696 13.1007H21.6741C21.7672 12.97 21.8615 12.8323 21.956 12.6767C22.034 12.5528 22.1147 12.4386 22.1996 12.3313C22.5389 11.9045 22.9535 11.6223 23.4996 11.6223C24.2576 11.6223 24.6613 12.1605 24.7517 12.6767C25.1116 12.4152 24.9816 11.7833 24.3575 11.3497C24.1906 11.2328 23.8239 11.0442 23.8239 11.0442H23.8293L22.2009 10.0874L21.5742 9.7199L22.2009 6.10099L22.2311 5.89172ZM16.8559 6.31296L19.0591 7.06458V10.5459L17.4375 9.68555L16.8559 6.31296ZM17.3116 13.7078C17.6729 14.0697 18.0273 14.2942 18.364 14.4181C18.3201 14.5929 18.2626 14.9535 18.4254 15.3128C18.5582 15.6018 18.7991 15.8249 19.1453 15.9735C19.1836 16.3315 19.408 16.8697 20.0306 17.1078C19.7583 17.3845 19.4928 17.6447 19.3847 17.7507L16.86 17.7107C16.8025 17.6818 16.7054 17.6172 16.6616 17.5249C16.6561 17.5125 16.6479 17.5056 16.6438 17.4919L17.0557 17.5593C17.0653 17.5607 17.0735 17.5607 17.0817 17.5607C17.1611 17.5607 17.2309 17.5056 17.2445 17.4231C17.2583 17.3309 17.1967 17.2469 17.1077 17.2331L16.6014 17.1533L17.1638 15.1999L16.6315 14.0725L15.7777 14.9811L15.7256 17.0129L15.1522 16.922C15.0633 16.9041 14.9784 16.9702 14.9634 17.0596C14.9498 17.1491 15.0099 17.2331 15.1003 17.2496L15.3411 17.2868C15.2549 17.3363 15.1988 17.3749 15.1919 17.3804L15.1427 17.4148L15.129 17.4754C14.9894 18.0452 15.3055 18.5862 15.6463 18.8285L15.6339 18.9001C15.6202 18.9882 15.6394 19.0736 15.6913 19.1452C15.7406 19.2181 15.8173 19.2621 15.9022 19.2773C15.9199 19.28 15.9391 19.2813 15.9555 19.2813C16.1033 19.2813 16.2319 19.1781 16.2688 19.0281C16.3962 19.0433 16.5125 19.046 16.5918 19.046H16.6589L19.9718 19.6475L20.0279 19.6104C20.292 19.4246 21.2978 18.6867 21.6275 18.443C21.7179 18.5216 21.8191 18.5931 21.9423 18.6523C21.8355 19.013 21.8287 19.5677 22.2516 20.0055H13.8085V15.1035C13.8085 14.6286 13.6702 14.151 13.5074 13.7105H17.3116V13.7078ZM21.4059 18.1925C21.0707 18.4403 20.2085 19.0736 19.8965 19.2938L16.886 18.7501C16.8929 18.7225 16.8996 18.6964 16.9065 18.6688C16.9462 18.5119 16.986 18.2972 16.9887 18.0452L19.5189 18.0865L19.5667 18.0371C19.6051 17.9985 20.407 17.2193 20.8161 16.7705C20.9133 16.8931 21.035 17.0101 21.1938 17.1133C21.1391 17.4107 21.1623 17.8346 21.4059 18.1925ZM16.3661 17.6681C16.4372 17.8181 16.5659 17.9186 16.6547 17.975C16.652 18.1154 16.6384 18.3343 16.6014 18.527C16.5932 18.5698 16.5822 18.6096 16.5699 18.6496C16.563 18.6743 16.5563 18.695 16.5508 18.7115C16.418 18.7115 16.1566 18.695 15.9432 18.6165C15.7065 18.5284 15.3534 18.0921 15.4355 17.6116C15.5381 17.5483 15.7748 17.4148 15.9965 17.4148C16.1676 17.4135 16.284 17.4946 16.3661 17.6681ZM16.0527 17.0638L16.1033 15.1132L16.5384 14.6494L16.8122 15.2247L16.273 17.0968L16.0527 17.0638ZM21.3785 27.1759C21.2143 27.1759 21.0624 27.1787 20.9255 27.1841L21.284 26.0622C21.3402 25.9067 21.0569 25.7071 20.9407 25.5323C21.1171 25.6438 21.5742 25.8874 21.7945 25.9852C21.7712 26.0209 21.3785 27.1759 21.3785 27.1759ZM22.5034 25.9012L22.2694 27.129C22.1202 27.1497 21.9615 27.1607 21.7986 27.1676L22.045 25.9865C22.1188 25.6355 21.1814 25.5268 20.719 24.8371C20.4932 25.0932 20.0676 25.1689 19.6406 25.1689C19.2507 25.1689 18.8606 25.1055 18.6239 25.0588C18.5637 25.0491 18.5062 25.0422 18.4502 25.0422C18.3133 25.0422 18.1887 25.0849 18.1026 25.2308L18.0341 25.3465L16.7574 25.0437L16.4399 25.5721C16.3947 25.6575 16.3921 25.7305 16.4645 25.8103L16.5508 25.9053C16.4919 26.0926 16.2265 26.3747 16.2265 26.3747L16.0362 26.1366C15.8857 25.9673 15.9103 25.6589 16.0677 25.3726L16.574 24.5123L17.6551 24.6692L17.4868 24.2837C17.261 23.7745 17.6045 23.1261 17.6414 22.7531C17.6291 22.866 17.5264 22.8907 17.406 22.8907C17.2966 22.8907 17.1748 22.8701 17.094 22.8701C17.0626 22.8701 17.0352 22.8728 17.0201 22.8838L16.7273 23.0628L16.496 22.8577C16.4687 22.8178 16.4591 22.7255 16.5275 22.6567L17.0626 22.0538L16.4304 21.3118L17.3157 21.7592L17.5853 21.4302C17.6591 21.5031 17.6277 21.6944 17.6277 21.6944C17.9041 21.7014 18.6786 22.1322 18.7197 23.1371C18.7225 23.1674 18.7225 23.2017 18.7225 23.2348C18.7225 23.2348 18.7293 23.2472 18.7429 23.2679C18.7977 23.3436 18.9482 23.5377 19.1398 23.5555L20.3632 23.6767H20.3687C20.5027 23.6767 20.7696 23.5184 21.1117 23.5184C21.2978 23.5184 21.5058 23.5666 21.7275 23.707C21.7275 23.707 21.8383 23.6189 22.019 23.6093C22.0326 23.6079 22.0477 23.6079 22.0614 23.6079C22.6101 23.6079 22.8373 24.1062 23.1315 24.5205C23.3532 24.8357 23.6487 25.3038 23.6487 25.3038C23.5392 25.4345 23.438 25.5062 23.2683 25.5062C23.2218 25.5062 23.1684 25.502 23.1109 25.491C22.5225 25.3822 22.4377 24.1653 22.1024 24.069C22.0847 24.0635 22.0655 24.0621 22.0491 24.0621C21.9409 24.0621 21.893 24.1585 21.893 24.1585C22.0463 24.5728 21.9574 24.7408 22.1216 25.0601C22.2448 25.2969 22.4637 25.4923 22.554 25.5845C22.554 25.5873 22.5294 25.7663 22.5034 25.9012ZM15.9336 24.7394L15.9897 24.8811C15.9527 25.0051 15.5285 25.1813 15.5285 25.1813L15.4369 24.9803C15.3397 24.7656 15.3602 24.4035 15.6559 24.1819L16.3428 23.7606L17.0707 23.9162C17.0571 24.1488 17.1953 24.3223 17.1953 24.3223L16.4316 24.175L15.9746 24.493C15.898 24.5467 15.8925 24.6472 15.9336 24.7394ZM22.6183 27.0616L22.8277 25.9631C22.8386 25.8984 22.8523 25.8227 22.8619 25.7595C22.9208 25.7842 22.9836 25.8048 23.0521 25.8173C23.13 25.8323 23.2026 25.8393 23.2683 25.8393C23.5885 25.8393 23.7746 25.6699 23.8991 25.5254L24.0606 25.3368L23.9293 25.1304C23.9169 25.1096 23.6268 24.6471 23.4024 24.3305C23.3586 24.2686 23.3162 24.2066 23.2737 24.1392C23.0193 23.7565 22.7004 23.2761 22.0614 23.2761L22.0039 23.2775C21.8986 23.2844 21.8082 23.305 21.7357 23.3326C21.5345 23.2376 21.3279 23.1894 21.1131 23.1894C20.8489 23.1894 20.6259 23.2623 20.4781 23.3133C20.4357 23.3257 20.3974 23.3394 20.3673 23.345L19.1726 23.2266C19.1576 23.2238 19.1083 23.1949 19.0495 23.1234V23.1178L19.3081 23.0132C19.2356 22.1474 18.409 21.6146 17.9479 21.4343C17.9274 21.3476 17.8863 21.2609 17.8138 21.1907L17.5565 20.9457L17.3307 21.2182L17.22 21.3572L15.5477 20.6662L16.6356 22.0399L16.2059 22.6938C16.0486 22.8617 16.2224 23.0297 16.2224 23.0297L16.6656 23.3367L17.1255 23.1646C17.1419 23.1646 17.1557 23.1688 17.1707 23.1701C17.1488 23.2403 17.12 23.5157 17.1009 23.5927L16.3031 23.4344L15.4642 23.9107C15.0332 24.2287 14.9743 24.7559 15.1345 25.1165L15.2275 25.3216L15.3602 25.6107L15.653 25.4882C15.6572 25.4869 15.6613 25.4855 15.664 25.4827C15.5587 25.8214 15.6011 26.1434 15.7899 26.3555L15.9678 26.5812L16.2045 26.8827L16.4645 26.6018C16.5411 26.5248 16.7889 26.2453 16.8655 26.0058L16.9216 25.8227L16.7943 25.6823L16.7739 25.6576L16.9161 25.4208L17.9574 25.6672L18.1914 25.7209L18.316 25.5144L18.3844 25.4015C18.3968 25.3781 18.4009 25.374 18.4487 25.374C18.4857 25.374 18.5226 25.3781 18.5623 25.3864C18.955 25.4607 19.3177 25.4978 19.6393 25.4978C19.9512 25.4978 20.1374 25.4855 20.3604 25.4111C20.3604 25.4111 20.9201 26.0499 20.9393 26.0747L20.5972 27.1373L20.5821 27.202C19.9335 27.2543 19.6173 27.3975 19.2356 27.7816C18.6813 27.2282 18.2886 27.1703 16.7984 27.1703C15.0153 27.1703 13.807 26.1187 13.807 24.4393V20.3331H24.6613L24.6641 24.4393C24.6655 25.8021 23.8704 26.7519 22.6183 27.0616ZM24.9652 13.7078C24.7995 14.1483 24.6613 14.6259 24.6613 15.1009L24.6627 18.165C24.0264 18.0576 23.9512 17.368 23.9484 17.3377L23.9361 17.1973L23.7993 17.1849C23.5228 17.1587 23.3395 17.0404 23.1848 16.8889C22.8729 16.5751 22.8715 16.0658 22.8729 16.0617C22.8688 16.0878 22.5294 16.5654 22.9234 17.0872C23.089 17.3074 23.3285 17.4423 23.6391 17.496C23.7117 17.8787 23.9949 18.4183 24.6627 18.5008V20.0013H22.7853C21.919 19.5167 22.2858 18.6633 22.3035 18.6276L22.3775 18.4651L22.2119 18.4018C21.2745 18.0522 21.5318 17.1106 21.5455 17.0707L21.5838 16.933L21.4566 16.8724C20.682 16.5118 20.7874 15.5386 20.7969 15.4987C20.5589 15.6928 20.4726 16.0892 20.6368 16.4774C20.5479 16.5793 20.4289 16.7031 20.2988 16.8381C19.497 16.6329 19.4723 15.891 19.4723 15.8566L19.4709 15.7423L19.3656 15.701C19.0522 15.584 18.8374 15.4091 18.732 15.1738C18.613 14.9136 18.6554 14.641 18.6882 14.5102C18.7799 14.531 18.8716 14.5461 18.9592 14.5529C19.0495 14.5627 19.1426 14.5681 19.2356 14.5681H19.2411H19.2479C19.341 14.5681 19.4326 14.5627 19.523 14.5529C20.0224 14.5034 20.5821 14.2873 21.165 13.7064H24.9652V13.7078ZM22.0395 10.6105L22.7812 11.0442H22.7921L22.9782 11.1529C22.5594 11.2699 22.2392 11.4805 21.971 11.7572C21.9615 11.7655 21.9519 11.7765 21.9423 11.7861C21.8807 11.8522 21.8191 11.9238 21.7617 11.9968C21.7508 12.0105 21.7398 12.0256 21.7275 12.0408C21.67 12.1151 21.6166 12.1908 21.5646 12.2707C21.5564 12.2844 21.5468 12.2982 21.5372 12.3105C21.4757 12.4028 21.4168 12.5019 21.358 12.6038C20.8298 13.5192 19.9869 14.0657 19.2369 14.0671C18.4885 14.0657 17.6455 13.5192 17.1173 12.6038C17.0598 12.5047 17.0023 12.4083 16.9408 12.3148C16.9284 12.2968 16.9175 12.2789 16.9065 12.2638C16.8546 12.188 16.8025 12.1137 16.7491 12.0435C16.7355 12.0243 16.7232 12.0091 16.7095 11.9926C16.652 11.9224 16.5932 11.8522 16.5343 11.7875C16.522 11.7778 16.5138 11.7655 16.5015 11.7544C16.2319 11.4778 15.9131 11.2685 15.493 11.1529L15.6818 11.0442H15.6901L16.4316 10.6105L17.1939 10.1714L19.2301 11.2864L19.2342 11.2823L19.2397 11.2864L21.2759 10.1714L22.0395 10.6105ZM21.035 9.68684L19.4121 10.5472V7.06458L21.6139 6.31296L21.035 9.68684ZM19.2356 6.6819L16.8217 5.72243C17.027 5.23374 17.9739 4.81802 19.2356 4.81667C20.4986 4.81802 21.4456 5.23374 21.6494 5.72243L19.2356 6.6819Z" fill="#222222"/>
</svg>
