<svg width="108" height="78" viewBox="0 0 108 78" fill="none" xmlns="http://www.w3.org/2000/svg">
<path d="M82.2548 37.7698L83.0001 35.3693L80.5342 35.4471C80.326 35.4471 78.8116 35.4039 77.3424 34.3321C77.4519 34.3429 77.5614 34.358 77.6732 34.358C79.1853 34.358 80.6482 33.4418 81.2345 32.1324L82.2956 29.7663C80.966 29.7837 79.7502 29.6151 79.7502 29.6151C79.7395 29.613 78.7815 29.4899 77.6732 28.3512C76.8784 27.5344 75.8947 27.1022 74.8293 27.1022C74.3631 27.1022 73.9465 27.1865 73.5877 27.3011C73.6435 27.1087 73.6972 26.9142 73.7274 26.7133C74.0667 24.4986 72.6491 22.8089 72.6491 22.8111L70.7954 20.5012L69.6462 23.2151C69.642 23.2238 69.3519 23.859 68.8322 24.1702C68.6754 23.3729 68.2909 22.4761 67.4682 21.6183C65.9173 20.002 64.0292 19.7623 63.0413 19.7623C62.5837 19.7623 62.2572 19.812 62.1777 19.825L59.9395 20.2679C60.0684 19.7644 60.3433 18.8893 60.8459 18.1006L62.0811 16.1646L58.9728 16.5211L57.9827 14.4058L56.0667 15.3997L54.2946 13.6387L52.5269 15.3997L50.6044 14.4058L49.6163 16.5211L46.5104 16.1646L47.7477 18.1006C48.2503 18.8893 48.5252 19.7623 48.6519 20.2657L46.5169 19.8422L46.4438 19.8292C46.3364 19.812 46.0121 19.7623 45.5523 19.7623C44.5644 19.7623 42.6763 20.0043 41.1297 21.6183C40.3048 22.4739 39.9204 23.3729 39.7615 24.1702C39.246 23.8633 38.9582 23.2367 38.9582 23.2367L37.8068 20.5077L35.923 22.8326C35.6932 23.133 34.557 24.7211 34.8661 26.7176C34.8985 26.9164 34.9501 27.1109 35.0059 27.3031C34.6494 27.1886 34.2325 27.1044 33.7665 27.1044C32.7011 27.1044 31.7173 27.5366 30.9204 28.3533C29.8163 29.4877 28.8627 29.6151 28.8713 29.6151C28.8713 29.6151 27.8638 29.7967 26.3044 29.7686L27.3591 32.1346C27.9455 33.4462 29.4104 34.3601 30.9204 34.3601C31.0343 34.3601 31.1438 34.345 31.2555 34.3342C29.7905 35.4059 28.2763 35.4491 28.0938 35.4514L25.5806 35.3693L26.341 37.7677C26.7233 39.0036 28.0013 41.052 30.45 41.2724C30.1836 42.3959 29.593 43.6534 28.2956 44.1958L26.4248 44.9715L27.445 46.7585C28.0206 47.7222 29.3717 48.8501 31.2963 48.8501C31.713 48.8478 32.1146 48.8069 32.5014 48.7248C32.6001 49.1655 32.7247 49.6062 32.8708 50.0428C33.4443 51.7583 32.9502 52.9555 32.9438 52.9684L32.0201 54.9152L34.0822 55.4619C34.108 55.4706 34.7309 55.6411 35.5106 55.6411C35.8651 55.6411 36.2023 55.6045 36.5202 55.5289C36.7608 55.4726 36.9906 55.397 37.2118 55.3063C37.4782 55.7882 37.8026 56.2267 38.1806 56.62C39.5015 57.9834 41.3724 58.6749 43.7438 58.6749H43.7524L45.4451 58.6533L41.9481 60.114L44.603 61.4039C45.5675 61.8771 46.7124 62.4367 47.8764 62.8646L47.5457 63.7764L48.4607 64.1955C48.5424 64.2323 50.3016 65.0253 53.2272 65.1938C53.2272 65.1938 53.9338 65.2262 54.3225 65.2262C54.7114 65.2262 55.4094 65.1917 55.4094 65.1917C58.3156 65.0189 60.062 64.2344 60.1437 64.1955L61.0607 63.7742L60.7256 62.8602C61.9243 62.4194 63.11 61.8382 64.0336 61.3845L66.639 60.1118L63.1529 58.649L64.852 58.6706C67.2254 58.6706 69.0985 57.979 70.4173 56.6135C70.7933 56.2225 71.1176 55.7839 71.3861 55.3021C71.6074 55.3928 71.8393 55.4683 72.0798 55.5245C72.3956 55.6002 72.7328 55.6369 73.0872 55.6369C73.8541 55.6369 74.4834 55.4662 74.5006 55.4619L76.5713 54.9109L75.669 53.0008C75.6477 52.9511 75.1536 51.7563 75.7272 50.0384C75.8732 49.5998 75.9955 49.159 76.0945 48.7204C76.4832 48.8026 76.8892 48.8457 77.3081 48.8457C79.7588 48.8457 80.9339 47.1106 81.1615 46.7346L82.1711 44.9672L80.3002 44.1937C79.0006 43.6514 78.4121 42.3916 78.148 41.2702C80.5622 41.0628 81.8596 39.0144 82.2548 37.7698ZM48.8152 21.0933L48.7895 21.0997L48.8108 21.0716L48.8152 21.0933Z" fill="white"/>
<path d="M54.2968 20.9874C52.3163 20.9896 50.8321 21.6421 50.5078 22.4092L54.2968 23.913L58.0858 22.4092C57.7637 21.6421 56.2794 20.9896 54.2968 20.9874Z" fill="white"/>
<path d="M54.3354 60.7989H54.331H54.2988H54.2623H54.2602C53.0595 60.8076 51.4076 60.559 50.6108 60.3257L49.6528 62.9337C50.2843 63.1606 52.4237 63.5927 54.2988 63.5927C56.1697 63.5927 58.3113 63.1584 58.9406 62.9337L57.9848 60.3257C57.1856 60.5612 55.536 60.8076 54.3354 60.7989Z" fill="white"/>
<path d="M61.5851 58.206C60.8718 58.6122 59.2803 59.2215 58.3545 59.5047L59.132 61.6589C60.5647 61.2656 61.7461 60.8053 62.7234 60.3127L61.1103 59.7726L61.5851 58.206Z" fill="white"/>
<path d="M47.0109 58.206L47.4878 59.7726L45.8726 60.3127C46.8477 60.8053 48.0356 61.2656 49.4618 61.6589L50.2394 59.5047C49.3179 59.2215 47.7241 58.6102 47.0109 58.206Z" fill="white"/>
<path d="M54.2972 18.494C55.7899 18.494 57.2549 18.8526 58.3804 19.4836C58.4836 19.1356 58.6274 18.7143 58.823 18.2736L58.3976 18.3253L57.9508 18.3729L57.7617 17.9645L57.1927 16.7545L56.1551 17.2991L55.7514 17.5065L55.4291 17.1866L54.3014 16.0631L53.1759 17.1866L52.8536 17.5065L52.4499 17.2991L51.406 16.7545L50.8433 17.9645L50.6498 18.3729L50.2031 18.3253L49.7778 18.2736C49.9733 18.7165 50.1151 19.1356 50.2203 19.4836C51.348 18.8526 52.8086 18.494 54.2972 18.494Z" fill="white"/>
<path d="M77.0892 32.4784C77.2824 32.5453 77.48 32.5755 77.6755 32.5755C78.5196 32.5755 79.3359 32.0267 79.6173 31.398C79.6173 31.398 78.0686 31.3029 76.4039 29.6025C75.8733 29.0514 75.3127 28.8872 74.8316 28.8872C74.0841 28.8872 73.5234 29.2848 73.5234 29.2848C75.5339 30.3609 75.9441 32.0894 77.0892 32.4784Z" fill="white"/>
<path d="M30.9182 32.5755C31.1136 32.5755 31.3113 32.5453 31.5003 32.4784C32.6495 32.0894 33.0618 30.3609 35.0723 29.2848C35.0723 29.2848 34.5096 28.8872 33.7663 28.8872C33.2832 28.8872 32.7225 29.0514 32.1897 29.6025C30.5272 31.3029 28.9785 31.398 28.9785 31.398C29.2557 32.0267 30.074 32.5755 30.9182 32.5755Z" fill="white"/>
<path d="M77.6342 39.5027C77.6687 39.5049 77.6988 39.5049 77.7352 39.5049C79.8425 39.5049 80.5576 37.234 80.5576 37.234H80.5168C80.1302 37.234 76.9963 37.1432 74.7817 34.3105C73.3233 32.4479 72.129 30.8101 69.7684 30.1662L69.5364 30.1251L69.4849 29.8875C69.4204 29.5244 69.6674 29.1852 70.2282 28.8179C73.4844 26.6723 71.2741 23.9368 71.2741 23.9368C71.2741 23.9368 70.3441 26.1256 68.2626 26.1256C68.2132 26.1256 68.1597 26.1235 68.1081 26.1235C67.8717 26.1105 67.6441 26.1019 67.4143 26.0522L67.0297 25.9765C67.0297 25.9765 67.6226 24.3539 66.1921 22.863C65.1137 21.7372 63.8013 21.547 63.0431 21.547C62.6608 21.547 62.418 21.5968 62.418 21.5968C63.1376 22.5431 63.6574 24.1119 62.8261 25.0798C62.1087 25.9117 60.356 25.9527 60.356 27.193C60.356 27.7181 60.8435 28.3317 61.72 28.8828C64.3556 30.5529 66.9717 32.7678 68.0586 35.7365C69.4183 39.4402 67.8867 41.8968 65.7002 43.3057C65.7002 43.3057 66.3854 43.9408 67.3799 44.0208C67.5818 44.0403 67.7793 44.049 67.9641 44.049C70.0627 44.049 71.1474 43.0594 71.1474 43.0594C71.1474 43.0594 70.9691 44.427 69.8759 45.6975C68.8685 46.8708 67.5452 47.5601 65.5283 47.5903C65.5283 47.5903 65.4639 48.5325 66.3574 49.347C66.9289 49.8612 68.2498 50.0299 68.2498 50.0299C68.2498 50.0299 65.7774 50.5332 65.5047 54.2065C65.3564 56.1966 64.8516 56.888 64.8516 56.888H64.8967C70.634 56.888 70.4857 51.9377 70.4857 51.9377C70.4857 51.9377 70.8854 53.4028 72.4857 53.7852C72.6789 53.8371 72.8851 53.8565 73.0828 53.8565C73.5982 53.8565 74.045 53.7355 74.045 53.7355C74.045 53.7355 73.2073 51.9572 74.0386 49.4702C74.7281 47.4067 74.6163 45.8769 74.6163 45.8769C74.6163 45.8769 75.3897 47.0523 77.3057 47.0632H77.325C78.921 47.0632 79.6168 45.8467 79.6168 45.8467C75.7914 44.2499 76.1695 39.0944 76.1695 39.0944C76.1695 39.0944 76.6656 39.4659 77.6342 39.5027ZM76.483 44.8872C74.9278 44.116 73.9441 42.0675 73.7056 41.3286C73.4479 45.3907 71.4761 48.2106 69.1713 50.9244C67.9749 52.331 67.5581 53.6987 67.5581 53.6987C67.5581 53.6987 67.788 52.1495 68.8233 50.8876C70.9734 48.2883 73.0161 45.0537 73.1687 41.3135C73.2739 38.7033 72.6058 36.5858 71.5641 34.842C72.1462 36.6592 72.0647 38.8847 70.0863 40.9612C70.0863 40.9612 74.0236 36.2142 68.5184 31.3481C66.3145 29.4963 63.9045 28.3533 62.663 27.543C67.1479 29.0146 69.3367 27.394 69.3367 27.394C67.904 28.643 66.0502 28.6213 64.9012 28.4419C65.2126 28.5954 65.5369 28.7552 65.887 28.9432C69.6674 31.0088 73.0656 34.4077 73.6455 39.1159V39.0793C74.5262 43.701 76.483 44.8872 76.483 44.8872Z" fill="white"/>
<path d="M40.3436 50.0299C40.3436 50.0299 41.6646 49.8635 42.236 49.347C43.1273 48.5325 43.0651 47.5903 43.0651 47.5903C41.0459 47.5623 39.725 46.8708 38.7111 45.6998C37.6264 44.4293 37.446 43.0615 37.446 43.0615C37.446 43.0615 38.5306 44.051 40.627 44.051C40.8161 44.051 41.0116 44.0424 41.2136 44.023C42.208 43.9431 42.8953 43.3077 42.8953 43.3077C40.7087 41.899 39.1751 39.4402 40.5326 35.7365C41.6217 32.7699 44.2357 30.5529 46.8713 28.8828C47.7476 28.3317 48.2352 27.7202 48.2352 27.193C48.2352 25.9527 46.4846 25.9117 45.7673 25.0798C44.9359 24.1119 45.4579 22.5409 46.1752 21.5968C46.1752 21.5968 45.9369 21.547 45.5524 21.547C44.7964 21.547 43.4839 21.7372 42.4056 22.863C40.9708 24.3539 41.5657 25.9765 41.5657 25.9765L41.1812 26.0522C40.9514 26.1019 40.7216 26.1105 40.4875 26.1235C40.4338 26.1235 40.3865 26.1256 40.3349 26.1256C38.2493 26.1256 37.3236 23.939 37.3236 23.939C37.3236 23.939 35.1132 26.6745 38.3675 28.8201C38.9281 29.1874 39.1729 29.5267 39.1085 29.8896L39.0569 30.1274L38.8207 30.1683C36.4643 30.8123 35.2679 32.4502 33.8095 34.3127C31.5992 37.1411 28.4695 37.234 28.0787 37.234H28.0356C28.0356 37.234 28.7509 39.5049 30.8581 39.5049C30.8925 39.5049 30.9225 39.5049 30.959 39.5027C31.9279 39.4682 32.4262 39.0944 32.4262 39.0944C32.4262 39.0944 32.7999 44.2477 28.9787 45.8467C28.9787 45.8467 29.6746 47.0632 31.2705 47.0632H31.2898C33.208 47.0523 33.9792 45.8769 33.9792 45.8769C33.9792 45.8769 33.8674 47.4067 34.5547 49.4702C35.386 51.9572 34.5527 53.7355 34.5527 53.7355C34.5527 53.7355 34.9995 53.8565 35.5127 53.8565C35.7125 53.8565 35.9166 53.8371 36.1078 53.7852C37.7059 53.4028 38.1075 51.9377 38.1075 51.9377C38.1075 51.9377 37.9614 56.888 43.6987 56.888H43.7395C43.7395 56.888 43.2369 56.1966 43.0909 54.2065C42.8158 50.5332 40.3436 50.0299 40.3436 50.0299ZM39.4221 50.9244C37.1173 48.2106 35.1477 45.3907 34.8877 41.3286C34.6493 42.0655 33.6698 44.116 32.1147 44.8872C32.1147 44.8872 34.0693 43.701 34.9479 39.0793V39.1159C35.53 34.4099 38.9259 31.0088 42.7086 28.9432C43.0543 28.7532 43.3829 28.5931 43.6923 28.4419C42.543 28.6213 40.6894 28.643 39.2568 27.394C39.2568 27.394 41.4456 29.0146 45.9282 27.543C44.6867 28.3533 42.2789 29.4963 40.0751 31.3481C34.5677 36.2142 38.5071 40.9612 38.5071 40.9612C36.5266 38.8827 36.4471 36.6592 37.0293 34.842C35.9853 36.5879 35.3194 38.7033 35.4268 41.3135C35.5772 45.0537 37.6199 48.2883 39.7658 50.8876C40.8032 52.1474 41.0374 53.6987 41.0374 53.6987C41.0374 53.6987 40.6163 52.331 39.4221 50.9244Z" fill="white"/>
<path d="M50.055 31.9315C50.1495 32.0331 50.2418 32.1433 50.33 32.2534C50.3515 32.2794 50.3708 32.3032 50.3922 32.3335C50.4738 32.4437 50.5577 32.5603 50.6371 32.6792C50.6542 32.7029 50.6715 32.7311 50.6908 32.7591C50.7875 32.906 50.8777 33.0573 50.9679 33.2129C51.7949 34.6499 53.1202 35.5076 54.2951 35.5098C55.4723 35.5076 56.7932 34.6499 57.6245 33.2129C57.7168 33.053 57.8092 32.8975 57.9059 32.7526C57.9209 32.7311 57.936 32.7116 57.9488 32.69C58.0304 32.5668 58.1163 32.4459 58.2066 32.3291C58.2259 32.3032 58.2432 32.2816 58.2603 32.2601C58.3527 32.1455 58.4471 32.0331 58.5438 31.9295C58.561 31.9121 58.5739 31.897 58.5889 31.8841C59.0099 31.4498 59.5126 31.1192 60.1698 30.9354L59.8777 30.7648H59.8604L58.6964 30.0842L57.5 29.3949L54.3037 31.1452L54.2951 31.1385L54.2887 31.1452L51.0903 29.3949L49.8961 30.082L48.7297 30.7626H48.7169L48.4204 30.9333C49.0798 31.117 49.5803 31.4433 50.0035 31.8776C50.0228 31.8949 50.0357 31.9144 50.055 31.9315ZM53.0021 31.7911H54.3553H55.7063V32.7247C55.3884 32.3335 54.7698 32.4134 54.7698 32.4134V33.7595C54.7698 33.7595 54.7935 34.4208 55.0233 34.7082H54.3553H53.6851C53.9191 34.4228 53.9407 33.7595 53.9407 33.7595V32.4134C53.9407 32.4134 53.3243 32.3335 53.0021 32.7247V31.7911Z" fill="white"/>
<path d="M54.0194 29.9802V24.5157L50.561 23.3359L51.4741 28.6318L54.0194 29.9802ZM53.2761 25.8575V26.7348L53.1086 26.657C53.0999 26.6504 52.8551 26.5944 52.4255 26.2529C51.7166 25.6998 51.7038 25.1898 51.7038 25.1898L53.2761 25.8575Z" fill="white"/>
<path d="M57.1212 28.6318L58.0298 23.3359L54.5737 24.5157V29.9802L57.1212 28.6318ZM55.3169 25.8575L56.8892 25.1921C56.8892 25.1921 56.8764 25.7019 56.1653 26.2551C55.7379 26.5964 55.4909 26.6527 55.4823 26.6591L55.3148 26.7369V25.8575H55.3169Z" fill="white"/>
<path d="M49.1284 42.6488C49.4655 42.772 49.8737 42.7979 50.0821 42.7979C50.0906 42.772 50.1014 42.7396 50.1122 42.7006C50.1315 42.6381 50.1487 42.5775 50.1616 42.5084C50.2195 42.2059 50.241 41.8623 50.2453 41.6419C50.1035 41.5533 49.9038 41.3956 49.792 41.1601C49.6632 40.8878 49.4807 40.7625 49.2121 40.7625C48.8642 40.7625 48.4905 40.9721 48.3315 41.0714C48.2048 41.8256 48.7567 42.5105 49.1284 42.6488Z" fill="white"/>
<path d="M56.7779 39.7486C56.1355 40.4508 54.879 41.6738 54.8166 41.7365L54.7415 41.8142L50.77 41.7516C50.7678 42.1471 50.7033 42.4841 50.641 42.7304C50.6303 42.7715 50.6196 42.8147 50.6089 42.858L55.3343 43.7115C55.8263 43.3658 57.1795 42.3718 57.7036 41.9829C57.3211 41.4211 57.2848 40.7556 57.3707 40.2866C57.1215 40.1246 56.9303 39.9431 56.7779 39.7486Z" fill="white"/>
<path d="M57.3166 34.9436C56.4015 35.8575 55.5231 36.1946 54.7391 36.2724C54.5973 36.2875 54.4534 36.2962 54.3073 36.2962H54.2966H54.2879C54.1418 36.2962 53.9959 36.2875 53.8541 36.2724C53.7166 36.2595 53.5727 36.2378 53.4288 36.2054C53.3772 36.4108 53.3127 36.8407 53.4976 37.2469C53.663 37.6164 54.0002 37.8909 54.4921 38.0723L54.6574 38.1371L54.6596 38.3165C54.6596 38.3705 54.6982 39.533 55.9591 39.8549C56.1653 39.641 56.3522 39.4486 56.4897 39.2888C56.2319 38.6794 56.3672 38.0572 56.7409 37.7525C56.7237 37.8174 56.5606 39.3428 57.7763 39.9088L57.976 40.004L57.9159 40.218C57.8965 40.2827 57.4907 41.7585 58.962 42.3073L59.2219 42.4068L59.1059 42.6617C59.0801 42.7179 58.5023 44.0576 59.8619 44.8181H62.8111V42.4629C61.763 42.3332 61.3183 41.4863 61.2045 40.8856C60.7168 40.8013 60.3389 40.5896 60.0811 40.2439C59.4625 39.425 59.9952 38.6752 60.0016 38.6341C59.9994 38.6406 60.0016 39.4401 60.4913 39.9327C60.734 40.1703 61.0219 40.3541 61.4579 40.3952L61.6727 40.4146L61.6921 40.6349C61.6964 40.6824 61.8145 41.7629 62.8133 41.9336L62.8111 37.1237C62.8111 36.3783 63.0281 35.6286 63.288 34.9371H57.3166V34.9436Z" fill="white"/>
<path d="M49.3802 37.1474L49.3008 40.2113L49.6465 40.2632L50.4928 37.3246L50.0632 36.4214L49.3802 37.1474Z" fill="white"/>
<path d="M58.7112 51.1986C58.737 51.1986 58.767 51.203 58.795 51.2095C59.3212 51.3607 59.4545 53.2708 60.3781 53.4416C60.4682 53.461 60.5519 53.4654 60.6251 53.4654C60.8914 53.4654 61.0503 53.3508 61.2222 53.1476C61.2222 53.1476 60.7581 52.4129 60.4103 51.9182C59.9484 51.27 59.5898 50.4857 58.7304 50.4857C58.7112 50.4857 58.6854 50.4857 58.6639 50.4878C58.3804 50.5029 58.2065 50.6412 58.2065 50.6412C57.8584 50.4207 57.534 50.3452 57.2399 50.3452C56.7007 50.3452 56.2818 50.5937 56.0735 50.5937H56.0648L54.1446 50.4036C53.8439 50.3755 53.6077 50.0707 53.5217 49.952C53.5002 49.9196 53.4894 49.9001 53.4894 49.9001C53.4894 49.8482 53.4894 49.7943 53.4852 49.7467C53.4207 48.1671 52.2051 47.4909 51.7732 47.4801C51.7732 47.4801 51.8248 47.1797 51.7067 47.0652L51.2835 47.5817L49.8937 46.8794L50.8839 48.044L50.0441 48.9926C49.9389 49.1006 49.9518 49.2475 49.9947 49.3081L50.3578 49.63L50.8173 49.349C50.841 49.3317 50.8818 49.3275 50.9333 49.3275C51.0601 49.3275 51.2512 49.3599 51.4231 49.3599C51.61 49.3599 51.7732 49.3189 51.7926 49.1417C51.7346 49.7273 51.1954 50.7449 51.5498 51.5443L51.812 52.1473L50.115 51.901L49.3202 53.2514C49.0754 53.7009 49.0366 54.187 49.273 54.4506L49.5695 54.8245C49.5695 54.8245 49.9861 54.3793 50.0806 54.0876L49.9453 53.9385C49.8314 53.8132 49.8379 53.7009 49.9068 53.5647L50.4049 52.7329L52.409 53.2081L52.5142 53.0267C52.6496 52.7998 52.8451 52.7307 53.0599 52.7307C53.1479 52.7307 53.2381 52.7415 53.3326 52.7566C53.7043 52.83 54.3165 52.9294 54.9286 52.9294C55.6009 52.9294 56.2668 52.8085 56.6212 52.4087C57.3472 53.4913 58.8186 53.6641 58.7026 54.2129L58.316 56.0668C58.5716 56.056 58.8186 56.0388 59.0527 56.0064L59.42 54.0768C59.4608 53.8672 59.4995 53.5841 59.4995 53.5841C59.3578 53.4394 59.014 53.1325 58.8207 52.7609C58.5608 52.2596 58.7026 51.9982 58.4598 51.3456C58.4685 51.3499 58.5414 51.1986 58.7112 51.1986ZM51.2147 48.4891C51.1159 48.4871 51.045 48.4028 51.0493 48.3032C51.058 48.2082 51.1374 48.1327 51.2341 48.1413C51.3329 48.1455 51.4038 48.232 51.3995 48.327C51.3909 48.4221 51.3093 48.4955 51.2147 48.4891Z" fill="white"/>
<path d="M48.4779 52.9532C48.4779 52.9532 49.1417 52.6788 49.2018 52.4822L49.1138 52.2595C49.0514 52.1148 49.0601 51.9571 49.1803 51.8706L49.8977 51.3715L51.0963 51.6027C51.0963 51.6027 50.8793 51.3305 50.9009 50.9653L49.7582 50.7211L48.6799 51.3823C48.2181 51.7302 48.1837 52.2984 48.3361 52.6356L48.4779 52.9532Z" fill="white"/>
<path d="M56.9492 56.0949C57.164 56.0863 57.4002 56.0819 57.6602 56.0819C57.6602 56.0819 58.2767 54.2691 58.311 54.2107C57.9652 54.0574 57.2478 53.6749 56.9707 53.4998C57.1533 53.7743 57.5979 54.0897 57.5098 54.3318L56.9492 56.0949Z" fill="white"/>
<path d="M62.8176 45.3433H45.7778V51.7909C45.7778 54.427 47.6745 56.0778 50.4733 56.0778C52.8125 56.0778 53.4289 56.1684 54.2989 57.0371C54.8981 56.4364 55.3944 56.2116 56.4124 56.1274L56.4361 56.028L56.9731 54.3578C56.943 54.3211 56.0645 53.3162 56.0645 53.3162C55.7165 53.433 55.4244 53.4524 54.9326 53.4524C54.4277 53.4524 53.8585 53.3941 53.242 53.2774C53.1798 53.2623 53.1218 53.2579 53.0637 53.2579C52.9886 53.2579 52.9821 53.2645 52.9628 53.3012L52.8554 53.4783L52.6599 53.8025L52.2926 53.7182L50.658 53.3315L50.4347 53.703L50.469 53.742L50.6687 53.9624L50.5808 54.2498C50.4605 54.6257 50.0695 55.0643 49.9513 55.1854L49.5432 55.6261L49.1717 55.153L48.8923 54.8007C48.5982 54.4702 48.5294 53.9624 48.6948 53.4308C48.6905 53.4351 48.6841 53.4374 48.6776 53.4374L48.2158 53.6296L48.0074 53.1759L47.8614 52.8539C47.61 52.2878 47.7024 51.4602 48.379 50.9611L49.6957 50.2135L50.9481 50.462C50.9781 50.341 51.0232 49.9089 51.0597 49.7987C51.036 49.7964 51.0124 49.79 50.9889 49.79L50.267 50.0601L49.5711 49.576C49.5711 49.576 49.2984 49.3125 49.5453 49.0488L50.2198 48.0225L48.5122 45.8661L51.137 46.9507L51.3109 46.7325L51.6654 46.3069L52.0671 46.6915C52.181 46.8017 52.2454 46.9379 52.2775 47.074C53.0015 47.357 54.2967 48.1932 54.4105 49.5523L54.0045 49.7165V49.7273C54.0969 49.8375 54.1742 49.8829 54.198 49.8872L56.0709 50.0731C56.1182 50.0645 56.1783 50.0427 56.2449 50.0233C56.4769 49.9434 56.827 49.8288 57.2416 49.8288C57.5788 49.8288 57.9053 49.9066 58.2188 50.0537C58.3349 50.0104 58.4766 49.978 58.6399 49.9672L58.7301 49.965C59.7332 49.965 60.2315 50.7191 60.6311 51.3198C60.6977 51.4234 60.7642 51.5229 60.8331 51.6201C61.1831 52.1171 61.6406 52.8452 61.6599 52.8756L61.8661 53.1996L61.6127 53.4957C61.4172 53.7225 61.1251 53.9883 60.6225 53.9883C60.5193 53.9883 60.4055 53.9775 60.2831 53.9537C60.1756 53.9343 60.0791 53.9018 59.9845 53.863C59.9694 53.9624 59.9502 54.0813 59.9308 54.1828L59.6021 55.907C61.5677 55.4209 62.8156 53.9278 62.8156 51.793L62.8176 45.3433Z" fill="#FFDD2D"/>
<path d="M45.7778 44.8248H59.0286C58.3669 44.1378 58.3755 43.267 58.5452 42.7009C58.3519 42.608 58.193 42.4956 58.0512 42.3745C57.5335 42.7592 55.9526 43.9174 55.5402 44.2069L55.4522 44.2673L50.2519 43.3209H50.1466C50.0221 43.3209 49.8394 43.3167 49.6398 43.2929C49.5838 43.5284 49.382 43.6905 49.1499 43.6905C49.1242 43.6905 49.0941 43.6884 49.0662 43.6819C48.9309 43.658 48.8127 43.589 48.7333 43.4744C48.6516 43.362 48.6194 43.2281 48.643 43.0898L48.6624 42.9775C48.1254 42.5971 47.6314 41.748 47.8505 40.8535L47.8719 40.7583L47.9471 40.7043C47.9578 40.6956 48.048 40.6353 48.1812 40.5574L47.8032 40.4991C47.6614 40.4732 47.5669 40.3413 47.5885 40.2009C47.612 40.0583 47.7452 39.9567 47.8848 39.9849L48.7849 40.1275L48.8665 36.9382L50.2067 35.512L51.0424 37.2818L50.1596 40.3499L50.9543 40.4752C51.0939 40.4969 51.1906 40.6287 51.1691 40.7734C51.1475 40.901 51.0403 40.9895 50.9135 40.9895C50.9005 40.9895 50.8855 40.9895 50.8727 40.9874L50.2261 40.8815C50.2347 40.901 50.2476 40.9118 50.2562 40.9334C50.325 41.0759 50.4774 41.1797 50.5677 41.2229L54.5327 41.2855C54.7004 41.1214 55.117 40.7107 55.5445 40.2765C54.5693 39.9048 54.215 39.0578 54.1548 38.4961C53.6091 38.2626 53.2333 37.9127 53.0249 37.4568C52.7714 36.8928 52.8618 36.3289 52.9282 36.0544C52.3998 35.86 51.8436 35.5056 51.2765 34.9395H45.3052C45.5608 35.6309 45.7778 36.3806 45.7778 37.1262V44.8248Z" fill="#FFDD2D"/>
<path d="M51.2355 48.1412C51.1387 48.1325 51.057 48.2081 51.0507 48.3033C51.0442 48.4026 51.1172 48.4869 51.2161 48.489C51.3106 48.4977 51.3943 48.4242 51.4029 48.327C51.4029 48.2319 51.3342 48.1434 51.2355 48.1412Z" fill="#222222"/>
<path d="M62.794 59.8328L61.8124 59.4547L62.083 58.4348L62.3816 57.3221C62.3816 57.3221 60.6418 58.2705 58.1909 58.9837C57.4949 59.1846 56.9687 59.2754 56.9687 59.2754V60.0316C56.9687 60.0316 55.6583 60.2607 54.3332 60.2607H54.3181H54.2988H54.2731H54.2579C52.9326 60.2607 51.6225 60.0316 51.6225 60.0316V59.2754C51.6225 59.2754 51.094 59.1846 50.4003 58.9837C47.9493 58.2705 46.2117 57.3221 46.2117 57.3221L46.5059 58.4348L46.7831 59.4547L45.7992 59.8328L44.708 60.2434C45.9603 60.8506 47.6938 61.7364 49.2811 62.1729L48.9074 63.2013C48.9074 63.2013 50.92 64.124 54.2731 64.1326V64.1349H54.2837H54.2988H54.3116H54.3203V64.1326C57.6775 64.124 59.688 63.2013 59.688 63.2013L59.3121 62.1729C60.8995 61.7364 62.6372 60.8506 63.883 60.2434L62.794 59.8328ZM45.8723 60.3125L47.4876 59.7723L47.0107 58.2058C47.7217 58.612 49.3176 59.2213 50.2412 59.5043L49.4615 61.6586C48.0353 61.2633 46.8474 60.803 45.8723 60.3125ZM54.2988 63.5925C52.4237 63.5925 50.282 63.1581 49.6527 62.9334L50.6107 60.3254C51.4055 60.5588 53.0594 60.8074 54.2601 60.7987H54.2623H54.2988H54.331H54.3353C55.536 60.8074 57.1857 60.5588 57.9846 60.3254L58.9406 62.9334C58.3111 63.1604 56.1717 63.5925 54.2988 63.5925ZM59.1317 61.6586L58.3542 59.5043C59.28 59.2213 60.8716 58.612 61.5846 58.2058L61.11 59.7723L62.7231 60.3125C61.7457 60.803 60.5644 61.2633 59.1317 61.6586Z" fill="#222222"/>
<path d="M54.2965 19.125C56.2942 19.125 57.8923 19.7904 58.775 20.5013C58.775 20.5013 59.0371 18.9132 59.9328 17.5109L58.324 17.6946L57.482 15.8947L55.8646 16.7329L54.2965 15.173L52.7328 16.7329L51.1133 15.8947L50.2734 17.6946L48.6646 17.5109C49.5602 18.9132 49.8224 20.5013 49.8224 20.5013C50.7073 19.7904 52.3011 19.125 54.2965 19.125ZM50.2003 18.3254L50.6471 18.373L50.8405 17.9646L51.4033 16.7546L52.4472 17.297L52.8509 17.5044L53.1732 17.1846L54.2987 16.0611L55.4264 17.1846L55.7485 17.5044L56.1523 17.297L57.1898 16.7546L57.759 17.9646L57.9481 18.373L58.3949 18.3254L58.8201 18.2736C58.6247 18.7166 58.4808 19.1357 58.3777 19.4836C57.2521 18.8527 55.7872 18.494 54.2945 18.494C52.8079 18.494 51.3452 18.8527 50.2155 19.4836C50.1102 19.1357 49.9684 18.7144 49.7729 18.2736L50.2003 18.3254Z" fill="#222222"/>
<path d="M77.7331 40.1985C80.3171 40.1985 81.1805 37.5537 81.2171 37.4414L81.5049 36.5102L80.5362 36.5403H80.5319C80.1903 36.5403 77.3401 36.4647 75.3187 33.8805L75.1275 33.6406C73.8066 31.951 72.5543 30.3456 70.3161 29.6131C70.3806 29.5547 70.473 29.4813 70.5997 29.3992C71.7874 28.6126 72.4791 27.6576 72.6531 26.5492C72.9066 24.881 71.8498 23.5522 71.8025 23.4981L71.083 22.6036L70.6341 23.6645C70.604 23.7315 69.8479 25.4299 68.2584 25.4299H68.1402C68.0307 25.4234 67.9277 25.419 67.8245 25.4104C67.8803 24.652 67.7428 23.4787 66.6861 22.3789C65.4166 21.0543 63.8572 20.8556 63.0409 20.8556C62.6049 20.8556 62.3149 20.9096 62.2849 20.9139L61.198 21.13L61.8681 22.0181C62.3945 22.703 62.8713 23.967 62.3063 24.6283C62.1259 24.8378 61.7544 25.0085 61.3977 25.1792C60.6652 25.5185 59.6665 25.9895 59.6665 27.191C59.6665 27.9687 60.2658 28.7812 61.3527 29.4726C64.5703 31.508 66.5551 33.6319 67.4121 35.9765C68.7374 39.5827 67.0082 41.6397 65.3285 42.7223L64.5746 43.2106L65.234 43.8198C65.3221 43.8976 66.1297 44.6129 67.3218 44.7165C67.5474 44.7317 67.7644 44.7446 67.9662 44.7446C68.731 44.7446 69.3819 44.6236 69.9102 44.4616C69.7642 44.7187 69.5859 44.9801 69.3603 45.2438C68.4001 46.363 67.2189 46.8729 65.5196 46.8989L64.8882 46.9097L64.8388 47.5471C64.8324 47.6746 64.785 48.8566 65.8977 49.8613C66.0674 50.0169 66.2736 50.1443 66.4885 50.2502C65.7345 50.933 64.9677 52.1214 64.8195 54.159C64.6949 55.8594 64.2911 56.4882 64.2868 56.4947L63.5886 57.5664L64.8496 57.5838C66.933 57.5838 68.529 57.0047 69.6352 55.8594C70.2881 55.181 70.662 54.4161 70.8832 53.7376C71.2462 54.0488 71.7145 54.3211 72.3245 54.4658C72.5565 54.5198 72.81 54.5501 73.0828 54.5501C73.6713 54.5501 74.1631 54.4247 74.219 54.4118L75.0246 54.1958L74.6679 53.4394C74.6421 53.3789 73.9699 51.8621 74.6937 49.697C75.0052 48.7614 75.1641 47.9231 75.2414 47.2705C75.7484 47.5363 76.4271 47.7567 77.3056 47.7589C79.2989 47.7589 80.1776 46.2614 80.2182 46.1988L80.6113 45.5117L79.8832 45.2092C77.5075 44.2175 76.9813 41.5532 76.8761 40.1099C77.0908 40.1509 77.3356 40.1898 77.6128 40.1985H77.7331ZM79.6168 45.8467C79.6168 45.8467 78.9209 47.0631 77.325 47.0631H77.3056C75.3896 47.0524 74.6163 45.8769 74.6163 45.8769C74.6163 45.8769 74.7281 47.4067 74.0364 49.4701C73.2052 51.9573 74.0428 53.7355 74.0428 53.7355C74.0428 53.7355 73.5961 53.8565 73.0806 53.8565C72.883 53.8565 72.6768 53.837 72.4835 53.7851C70.8832 53.4027 70.4838 51.9377 70.4838 51.9377C70.4838 51.9377 70.6318 56.8881 64.8947 56.8881H64.8496C64.8496 56.8881 65.3543 56.1966 65.5046 54.2065C65.7774 50.5332 68.2498 50.0298 68.2498 50.0298C68.2498 50.0298 66.9309 49.8634 66.3595 49.347C65.4661 48.5324 65.5283 47.5904 65.5283 47.5904C67.5474 47.5622 68.8685 46.8708 69.8758 45.6976C70.967 44.4271 71.1474 43.0593 71.1474 43.0593C71.1474 43.0593 70.0627 44.0489 67.964 44.0489C67.7794 44.0489 67.5817 44.0403 67.3799 44.0208C66.3875 43.9409 65.7002 43.3056 65.7002 43.3056C67.8846 41.8968 69.4182 39.438 68.0586 35.7343C66.9696 32.7677 64.3534 30.5507 61.72 28.8805C60.8436 28.3296 60.356 27.718 60.356 27.191C60.356 25.9505 62.1087 25.9117 62.8283 25.0776C63.6575 24.1097 63.1376 22.5387 62.418 21.5946C62.418 21.5946 62.6608 21.5448 63.0431 21.5448C63.8013 21.5448 65.1138 21.7371 66.1921 22.8608C67.6247 24.3517 67.0298 25.9744 67.0298 25.9744L67.4143 26.05C67.6441 26.0997 67.8718 26.1084 68.1081 26.1191C68.1597 26.1191 68.211 26.1213 68.2626 26.1213C70.344 26.1213 71.2741 23.9325 71.2741 23.9325C71.2741 23.9325 73.4865 26.6701 70.2302 28.8136C69.6696 29.1809 69.4227 29.5202 69.487 29.8831L69.5385 30.1208L69.7705 30.1619C72.1312 30.8058 73.3255 32.4436 74.784 34.3062C76.9986 37.1389 80.1324 37.2296 80.5191 37.2296H80.5599C80.5599 37.2296 79.8446 39.5006 77.7374 39.5006C77.7029 39.5006 77.6729 39.5006 77.6365 39.4984C76.6676 39.4639 76.1715 39.09 76.1715 39.09C76.1715 39.09 75.7913 44.2477 79.6168 45.8467Z" fill="#222222"/>
<path d="M73.1946 29.8983C74.1589 30.4146 74.7196 31.1061 75.2115 31.7197C75.6947 32.3183 76.1544 32.8952 76.8718 33.135C77.1274 33.2236 77.3982 33.2647 77.6731 33.2647C78.7514 33.2647 79.8339 32.6013 80.2442 31.6829L80.6566 30.7625L79.6578 30.702C79.6105 30.6999 78.326 30.5831 76.8955 29.1118C76.3068 28.5088 75.596 28.1913 74.8291 28.1913C73.8926 28.1913 73.1988 28.6623 73.1215 28.7098L72.2021 29.3602L73.1946 29.8983ZM74.8313 28.887C75.3124 28.887 75.873 29.0512 76.4035 29.6023C78.0682 31.3027 79.6169 31.3978 79.6169 31.3978C79.3355 32.0245 78.5194 32.5753 77.6751 32.5753C77.4797 32.5753 77.2842 32.5451 77.0888 32.4781C75.944 32.0892 75.5336 30.3607 73.5209 29.2846C73.5209 29.2846 74.0837 28.887 74.8313 28.887Z" fill="#222222"/>
<path d="M73.6457 39.0792V39.1137C73.0658 34.4077 69.6676 31.0089 65.8872 28.9409C65.537 28.753 65.2149 28.5932 64.9014 28.4397C66.0526 28.6191 67.9062 28.6407 69.3369 27.3918C69.3369 27.3918 67.1481 29.0123 62.6631 27.5408C63.9046 28.3511 66.3168 29.4942 68.5185 31.3459C74.0237 36.2119 70.0843 40.959 70.0843 40.959C72.0626 38.8825 72.1442 36.657 71.562 34.8398C72.6039 36.5835 73.2698 38.7011 73.1666 41.3112C73.0142 45.0514 70.9715 48.2861 68.8213 50.8855C67.7882 52.1472 67.5562 53.6965 67.5562 53.6965C67.5562 53.6965 67.9728 52.3288 69.1692 50.9222C71.4741 48.2083 73.4437 45.3886 73.7015 41.3263C73.9399 42.0632 74.9216 44.1137 76.4788 44.8851C76.4831 44.8873 74.5263 43.701 73.6457 39.0792Z" fill="#222222"/>
<path d="M44.3066 56.4922C44.3044 56.4858 43.905 55.857 43.7761 54.1566C43.6256 52.1189 42.861 50.9306 42.1049 50.2477C42.324 50.144 42.5259 50.0165 42.6956 49.8588C43.8061 48.8541 43.7589 47.6722 43.7524 47.5446L43.7095 46.9071L43.0736 46.8964C41.3789 46.8683 40.1954 46.3583 39.2352 45.2413C39.0119 44.9777 38.8313 44.7162 38.6853 44.4591C39.2137 44.6211 39.8603 44.7421 40.627 44.7421C40.8333 44.7421 41.0459 44.7292 41.2715 44.7141C42.4635 44.6103 43.2713 43.8974 43.3615 43.8174L44.0209 43.2081L43.267 42.7197C41.5809 41.635 39.8581 39.5781 41.1812 35.9739C42.0383 33.6295 44.0209 31.5055 47.2428 29.4701C48.3297 28.7787 48.9248 27.9662 48.9248 27.1884C48.9248 25.9871 47.928 25.5138 47.1957 25.1768C46.8391 25.006 46.4675 24.8354 46.287 24.6258C45.72 23.9667 46.1989 22.7005 46.7231 22.0155L47.3975 21.1275L46.3064 20.9114C46.2742 20.9072 45.9885 20.8531 45.5502 20.8531C44.734 20.8531 43.1789 21.0519 41.9073 22.3765C40.8484 23.4784 40.7087 24.6518 40.7624 25.4079C40.6593 25.4166 40.5563 25.421 40.4488 25.4274H40.3329C38.7391 25.4274 37.9851 23.729 37.9551 23.662L37.5061 22.6011L36.78 23.4957C36.7393 23.5497 35.6781 24.8807 35.9359 26.5466C36.1078 27.6551 36.7994 28.6101 37.9872 29.3967C38.1162 29.4788 38.2063 29.5522 38.2708 29.6106C36.0347 30.343 34.7847 31.9506 33.4636 33.6403L33.2725 33.8802C31.2534 36.4643 28.3966 36.54 28.0551 36.54L27.082 36.5098L27.3784 37.4411C27.4128 37.5534 28.2741 40.1981 30.8603 40.1981L30.9848 40.1939C31.2576 40.1852 31.5025 40.1485 31.7217 40.1053C31.6142 41.5464 31.088 44.2107 28.7101 45.2046L27.9842 45.5071L28.3773 46.1942C28.4159 46.2568 29.2966 47.7542 31.2942 47.7542C32.1662 47.752 32.8449 47.5317 33.3541 47.2659C33.4314 47.9185 33.5903 48.7568 33.9018 49.6924C34.6256 51.8575 33.9512 53.3743 33.9255 53.4348L33.5689 54.1911L34.3765 54.4072C34.4302 54.42 34.9264 54.5455 35.5127 54.5455C35.7876 54.5455 36.0412 54.5151 36.2689 54.4612C36.881 54.3164 37.3536 54.0441 37.7123 53.733C37.9314 54.4114 38.3074 55.1764 38.9581 55.8547C40.0665 57 41.6602 57.579 43.7439 57.579L45.0069 57.5618L44.3066 56.4922ZM43.6965 56.8876C37.9593 56.8876 38.1054 51.9373 38.1054 51.9373C38.1054 51.9373 37.7059 53.4023 36.1056 53.7849C35.9144 53.8367 35.7104 53.8561 35.5107 53.8561C34.9951 53.8561 34.5505 53.7352 34.5505 53.7352C34.5505 53.7352 35.384 51.9568 34.5527 49.4698C33.8653 47.4063 33.9769 45.8765 33.9769 45.8765C33.9769 45.8765 33.2059 47.052 31.2878 47.0628H31.2684C29.6725 47.0628 28.9765 45.8462 28.9765 45.8462C32.7999 44.2495 32.424 39.094 32.424 39.094C32.424 39.094 31.9279 39.4656 30.9569 39.5023C30.9226 39.5045 30.8903 39.5045 30.856 39.5045C28.7467 39.5045 28.0335 37.2335 28.0335 37.2335H28.0764C28.4653 37.2335 31.5949 37.1429 33.8095 34.3101C35.2679 32.4476 36.4643 30.812 38.8208 30.1658L39.057 30.1248L39.1085 29.8872C39.1729 29.5242 38.928 29.1849 38.3675 28.8175C35.1111 26.6719 37.3235 23.9365 37.3235 23.9365C37.3235 23.9365 38.2493 26.1231 40.335 26.1231C40.3865 26.1231 40.4338 26.121 40.4875 26.121C40.7216 26.108 40.9536 26.0993 41.1812 26.0497L41.5657 25.974C41.5657 25.974 40.9708 24.3513 42.4056 22.8604C43.484 21.7347 44.7964 21.5445 45.5524 21.5445C45.9369 21.5445 46.1753 21.5943 46.1753 21.5943C45.4579 22.5407 44.9382 24.1094 45.7672 25.0773C46.4846 25.9093 48.2352 25.9503 48.2352 27.1905C48.2352 27.7156 47.7476 28.3293 46.8713 28.8802C44.2357 30.5504 41.6194 32.7673 40.5325 35.7341C39.1751 39.4376 40.7066 41.8943 42.8954 43.3053C42.8954 43.3053 42.208 43.9406 41.2136 44.0204C41.0116 44.0399 40.8161 44.0486 40.627 44.0486C38.5306 44.0486 37.4459 43.059 37.4459 43.059C37.4459 43.059 37.6264 44.4267 38.711 45.6972C39.725 46.8705 41.0459 47.562 43.0651 47.59C43.0651 47.59 43.1295 48.5321 42.236 49.3467C41.6625 49.8609 40.3436 50.0294 40.3436 50.0294C40.3436 50.0294 42.8181 50.533 43.0886 54.2062C43.2369 56.1962 43.7373 56.8876 43.7373 56.8876H43.6965Z" fill="#222222"/>
<path d="M30.9182 33.267C31.1952 33.267 31.4659 33.226 31.7216 33.1374C32.4432 32.8975 32.9008 32.3206 33.384 31.7221C33.878 31.1085 34.4343 30.4171 35.3988 29.9006L36.3911 29.3648L35.4697 28.7143C35.3924 28.6647 34.7007 28.1958 33.7663 28.1958C32.9974 28.1958 32.2843 28.5113 31.6978 29.1163C30.2674 30.5856 28.9851 30.7045 28.9377 30.7066L27.939 30.7649L28.3492 31.6875C28.7616 32.6016 29.842 33.267 30.9182 33.267ZM32.1898 29.6046C32.7225 29.0536 33.2831 28.8895 33.7663 28.8895C34.5095 28.8895 35.0724 29.287 35.0724 29.287C33.0618 30.3652 32.6494 32.0916 31.5003 32.4805C31.3113 32.5475 31.1136 32.5778 30.9182 32.5778C30.074 32.5778 29.2578 32.029 28.9785 31.4002C28.9785 31.398 30.5251 31.3029 32.1898 29.6046Z" fill="#222222"/>
<path d="M35.4267 41.3136C35.3192 38.7033 35.9851 36.5858 37.029 34.8422C36.4469 36.6592 36.5264 38.8849 38.5068 40.9613C38.5068 40.9613 34.5675 36.2141 40.0749 31.3483C42.2787 29.4965 44.6887 28.3534 45.928 27.5431C41.4453 29.0147 39.2565 27.3941 39.2565 27.3941C40.687 28.643 42.5408 28.6214 43.6921 28.4399C43.3806 28.5933 43.0542 28.7532 42.7082 28.9413C38.9236 31.009 35.5276 34.4078 34.9455 39.1139V39.0772C34.067 43.699 32.1123 44.8853 32.1123 44.8853C33.6675 44.1138 34.6469 42.0654 34.8854 41.3264C35.1453 45.3887 37.1149 48.2084 39.4197 50.9223C40.6161 52.3289 41.0371 53.6967 41.0371 53.6967C41.0371 53.6967 40.803 52.1474 39.7655 50.8856C37.6197 48.2906 35.577 45.0538 35.4267 41.3136Z" fill="#222222"/>
<path d="M53.0015 31.791V32.7246C53.3216 32.3334 53.9403 32.4134 53.9403 32.4134V33.7595C53.9403 33.7595 53.9187 34.4207 53.6846 34.7081H54.3547H55.0228C54.7929 34.423 54.7694 33.7595 54.7694 33.7595V32.4134C54.7694 32.4134 55.3879 32.3334 55.7059 32.7246V31.791H54.3547H53.0015Z" fill="#222222"/>
<path d="M52.4259 26.2552C52.8534 26.5967 53.1004 26.6528 53.1089 26.6593L53.2765 26.7371V25.8577L51.7041 25.1922C51.7041 25.1943 51.7191 25.7021 52.4259 26.2552Z" fill="#222222"/>
<path d="M56.1658 26.2552C56.8769 25.7021 56.8897 25.1922 56.8897 25.1922L55.3174 25.8577V26.7371L55.4828 26.6593C55.4936 26.6528 55.7384 26.5967 56.1658 26.2552Z" fill="#222222"/>
<path d="M58.9986 22.6749C58.9986 21.3418 56.7667 20.1426 54.303 20.1426H54.3009H54.2945H54.288C51.8243 20.1426 49.5926 21.3418 49.5926 22.6749L49.6419 23.0034L50.6257 28.6839L49.6377 29.2609L47.0816 30.7626H47.0902C47.0902 30.7626 46.5146 31.0586 46.2482 31.2422C45.2751 31.9229 45.0689 32.9146 45.6339 33.3252C45.7735 32.5171 46.4092 31.67 47.5992 31.67C48.4563 31.67 49.1092 32.1152 49.6377 32.7829C49.773 32.9514 49.9019 33.1307 50.0221 33.3252C50.1703 33.5694 50.3185 33.7832 50.4668 33.9907H43.8833C44.3666 34.9694 44.8261 36.0067 44.8261 37.1324V51.7908C44.8261 55.3387 47.5391 57.0327 50.4733 57.0327C52.7414 57.0327 53.0465 56.9291 54.2987 58.1823C55.5446 56.9268 55.8496 57.0327 58.1199 57.0327C61.0563 57.0327 63.7648 55.3387 63.7648 51.7908V37.1324C63.7648 36.0067 64.2245 34.9694 64.7099 33.9907H58.1243C58.2704 33.7855 58.4185 33.5694 58.5668 33.3252C58.6892 33.1307 58.8159 32.9514 58.9491 32.7829C59.4818 32.113 60.1326 31.67 60.9897 31.67C62.1795 31.67 62.8132 32.5149 62.9551 33.3252C63.52 32.9146 63.316 31.9229 62.3364 31.2422C62.0744 31.0586 61.4987 30.7626 61.4987 30.7626H61.5073L58.9512 29.2609L57.9675 28.6839L58.9512 23.0034L58.9986 22.6749ZM50.5613 23.3361L54.0195 24.5159V29.9804L51.4742 28.63L50.5613 23.3361ZM51.2766 34.9436C51.8436 35.5118 52.3999 35.8641 52.9284 36.0586C52.8596 36.3329 52.7693 36.899 53.0249 37.463C53.2334 37.9167 53.6114 38.2668 54.1548 38.5001C54.215 39.062 54.5673 39.9068 55.5446 40.2806C55.1171 40.7149 54.7003 41.1233 54.5307 41.2897L50.5678 41.227C50.4775 41.1816 50.325 41.0801 50.2563 40.9353C50.2476 40.9158 50.2348 40.905 50.2283 40.8834L50.8749 40.9892C50.8899 40.9915 50.9028 40.9915 50.9157 40.9915C51.0403 40.9915 51.1498 40.905 51.1713 40.7755C51.1929 40.6307 51.0961 40.4989 50.9565 40.4773L50.1618 40.352L51.0446 37.2858L50.209 35.5162L48.8688 36.9423L48.7871 40.1315L47.887 39.9889C47.7474 39.9608 47.6142 40.0646 47.5907 40.2049C47.5692 40.3454 47.6636 40.4773 47.8054 40.5031L48.1835 40.5615C48.0481 40.6392 47.9601 40.6998 47.9493 40.7085L47.872 40.7624L47.8506 40.8575C47.6315 41.752 48.1276 42.6012 48.6625 42.9814L48.6431 43.0939C48.6216 43.2322 48.6518 43.3662 48.7333 43.4785C48.8106 43.593 48.9309 43.6622 49.0642 43.6859C49.092 43.6902 49.1221 43.6923 49.1479 43.6923C49.3799 43.6923 49.5818 43.5303 49.6397 43.2948C49.8396 43.3187 50.0221 43.323 50.1467 43.323H50.252L55.4522 44.2671L55.5402 44.2088C55.9549 43.9171 57.5336 42.759 58.0512 42.3765C58.193 42.4997 58.3519 42.612 58.5453 42.705C58.3777 43.2711 58.3669 44.1418 59.0307 44.829H45.7777V37.1345C45.7777 36.3891 45.5607 35.6393 45.3052 34.9479H51.2766V34.9436ZM57.7032 41.9833C57.1771 42.3722 55.8238 43.3662 55.334 43.7119L50.6086 42.8584C50.6193 42.8152 50.6299 42.7741 50.6407 42.7308C50.7031 42.4845 50.7654 42.1475 50.7696 41.752L54.7413 41.8169L54.8164 41.7392C54.8765 41.6786 56.1353 40.4556 56.7774 39.7512C56.9301 39.9435 57.1212 40.1273 57.3704 40.2893C57.2845 40.756 57.3209 41.4214 57.7032 41.9833ZM49.7924 41.16C49.904 41.3955 50.106 41.5533 50.2455 41.6418C50.2413 41.8622 50.2198 42.2058 50.1618 42.5083C50.1489 42.5754 50.1316 42.638 50.1123 42.7007C50.1015 42.7395 50.091 42.7719 50.0823 42.7978C49.874 42.7978 49.4636 42.7719 49.1286 42.6488C48.757 42.5104 48.2028 41.8255 48.3316 41.0714C48.4928 40.972 48.8643 40.7624 49.2123 40.7624C49.4809 40.7604 49.6635 40.8877 49.7924 41.16ZM49.3004 40.2115L49.3799 37.1497L50.0629 36.4216L50.4926 37.3248L49.6463 40.2633L49.3004 40.2115ZM57.6603 56.0842C57.4025 56.0842 57.1642 56.0886 56.9493 56.0972L57.512 54.3362C57.6002 54.092 57.1555 53.7787 56.9731 53.5043C57.25 53.6793 57.9675 54.0617 58.3133 54.2152C58.2767 54.2713 57.6603 56.0842 57.6603 56.0842ZM59.426 54.0833L59.0587 56.0107C58.8245 56.0431 58.5753 56.0605 58.3198 56.0713L58.7064 54.2173C58.8224 53.6664 57.3509 53.4957 56.625 52.4131C56.2706 52.8151 55.6026 52.9339 54.9324 52.9339C54.3203 52.9339 53.7081 52.8345 53.3364 52.7611C53.2419 52.7459 53.1518 52.7351 53.0637 52.7351C52.8488 52.7351 52.6534 52.802 52.5181 53.0311L52.4106 53.2127L50.4067 52.7373L49.9083 53.5669C49.8374 53.7009 49.8332 53.8154 49.9469 53.9407L50.0823 54.0899C49.9899 54.3838 49.5732 54.8267 49.5732 54.8267L49.2746 54.4529C49.0384 54.1871 49.077 53.7031 49.324 53.2537L50.1188 51.9033L51.8157 52.1495L51.5515 51.5445C51.1971 50.7451 51.7363 49.7273 51.7942 49.1418C51.7749 49.319 51.6137 49.3579 51.4248 49.3579C51.253 49.3579 51.0618 49.3255 50.9351 49.3255C50.8857 49.3255 50.8427 49.3297 50.819 49.347L50.3593 49.6279L49.9964 49.306C49.9534 49.2434 49.9383 49.0986 50.0458 48.9906L50.8857 48.0442L49.8933 46.8795L51.283 47.5818L51.7062 47.0653C51.8221 47.1798 51.7727 47.4801 51.7727 47.4801C52.2066 47.491 53.4223 48.1673 53.4868 49.7446C53.4912 49.7922 53.4912 49.8461 53.4912 49.898C53.4912 49.898 53.5019 49.9175 53.5233 49.9499C53.6092 50.0688 53.8455 50.3734 54.1462 50.4014L56.0666 50.5917H56.0752C56.2856 50.5917 56.7045 50.3431 57.2414 50.3431C57.5336 50.3431 57.8601 50.4188 58.208 50.6392C58.208 50.6392 58.382 50.5009 58.6656 50.4859C58.6871 50.4836 58.7106 50.4836 58.7322 50.4836C59.5935 50.4836 59.9501 51.2658 60.4119 51.9162C60.7599 52.411 61.2237 53.1456 61.2237 53.1456C61.052 53.3508 60.893 53.4633 60.6266 53.4633C60.5537 53.4633 60.4698 53.4568 60.3796 53.4395C59.456 53.2688 59.3228 51.3586 58.7966 51.2074C58.7688 51.1988 58.7387 51.1966 58.7129 51.1966C58.5431 51.1966 58.468 51.3478 58.468 51.3478C58.7085 51.9983 58.5689 52.2619 58.8267 52.7632C59.02 53.1348 59.3636 53.4416 59.5054 53.5863C59.5054 53.5907 59.4668 53.8716 59.426 54.0833ZM49.1136 52.2597L49.2016 52.4822C49.1436 52.6767 48.4777 52.9533 48.4777 52.9533L48.3338 52.6379C48.1813 52.3009 48.2135 51.7325 48.6776 51.3846L49.7558 50.7234L50.8985 50.9676C50.877 51.3327 51.0939 51.6051 51.0939 51.6051L49.8953 51.3738L49.1779 51.873C49.0577 51.9572 49.0491 52.115 49.1136 52.2597ZM59.6063 55.9048L59.935 54.1806C59.9522 54.0791 59.9737 53.9602 59.9887 53.8609C60.0811 53.8997 60.1798 53.932 60.2873 53.9516C60.4096 53.9753 60.5236 53.9862 60.6266 53.9862C61.1292 53.9862 61.4214 53.7203 61.6168 53.4935L61.8704 53.1974L61.6642 52.8734C61.6448 52.8409 61.1894 52.1149 60.8372 51.6179C60.7685 51.5207 60.7018 51.4235 60.6352 51.3177C60.2358 50.717 59.7352 49.9628 58.7322 49.9628L58.6419 49.965C58.4766 49.9758 58.3348 50.0082 58.2209 50.0514C57.9051 49.9024 57.5808 49.8267 57.2437 49.8267C56.829 49.8267 56.4789 49.9412 56.2469 50.0213C56.1803 50.0406 56.1202 50.0622 56.0729 50.0709L54.1978 49.8851C54.1742 49.8808 54.0968 49.8354 54.0045 49.7231V49.7144L54.4104 49.5502C54.2967 48.1911 52.9991 47.3548 52.2753 47.0718C52.2432 46.9357 52.1787 46.7996 52.0649 46.6893L51.661 46.3048L51.3066 46.7326L51.1327 46.9507L48.5078 45.8661L50.2155 48.0224L49.541 49.0489C49.294 49.3124 49.5668 49.576 49.5668 49.576L50.2626 50.0579L50.9844 49.7878C51.0102 49.7878 51.0318 49.7943 51.0553 49.7965C51.021 49.9067 50.9759 50.3388 50.9458 50.4599L49.6935 50.2113L48.3767 50.9589C47.7002 51.458 47.6078 52.2857 47.8591 52.8517L48.0052 53.1736L48.2135 53.6274L48.6731 53.4351C48.6797 53.433 48.6861 53.4309 48.6903 53.4265C48.525 53.958 48.5916 54.4636 48.888 54.7965L49.1673 55.1508L49.5388 55.624L49.9469 55.1832C50.0672 55.0622 50.456 54.6236 50.5763 54.2476L50.6644 53.9602L50.4646 53.7398L50.4325 53.7009L50.6557 53.3293L52.2903 53.716L52.6576 53.8003L52.8531 53.4762L52.9606 53.299C52.9799 53.2623 52.9863 53.2558 53.0615 53.2558C53.1195 53.2558 53.1774 53.2623 53.2398 53.2753C53.8562 53.3919 54.4255 53.4502 54.9302 53.4502C55.4199 53.4502 55.7121 53.4309 56.0623 53.3141C56.0623 53.3141 56.9407 54.3168 56.9708 54.3557L56.4339 56.0236L56.4101 56.1252C55.392 56.2074 54.8958 56.4321 54.2967 57.035C53.4266 56.1664 52.8101 56.0755 50.471 56.0755C47.6722 56.0755 45.7755 54.4248 45.7755 51.7887V45.3432H62.8132L62.8176 51.7887C62.8198 53.9279 61.5718 55.4187 59.6063 55.9048ZM63.2902 34.9436C63.0302 35.6351 62.8132 36.3848 62.8132 37.1304L62.8154 41.94C61.8167 41.7715 61.6985 40.689 61.6942 40.6415L61.6749 40.4211L61.4602 40.4016C61.0262 40.3605 60.7384 40.1748 60.4956 39.937C60.006 39.4444 60.0038 38.6449 60.006 38.6385C59.9995 38.6795 59.4668 39.4292 60.0854 40.2482C60.3453 40.5939 60.7211 40.8056 61.2087 40.8899C61.3227 41.4906 61.7672 42.3376 62.8154 42.4672V44.8224H59.8685C58.5088 44.0618 59.0845 42.7222 59.1123 42.6661L59.2283 42.4111L58.9684 42.3117C57.497 41.7629 57.9009 40.285 57.9223 40.2223L57.9825 40.0062L57.7828 39.9111C56.567 39.345 56.7324 37.8174 56.7474 37.7548C56.3738 38.0594 56.2384 38.6817 56.4961 39.2911C56.3565 39.4509 56.1697 39.6453 55.9656 39.8572C54.7069 39.5351 54.6682 38.3706 54.6682 38.3165L54.666 38.1371L54.5007 38.0724C54.0088 37.8888 53.6716 37.6142 53.5062 37.2447C53.3193 36.8363 53.3859 36.4085 53.4374 36.2032C53.5813 36.2357 53.7252 36.2595 53.8627 36.2702C54.0045 36.2855 54.1506 36.2941 54.2967 36.2941H54.3052H54.3159C54.462 36.2941 54.6059 36.2855 54.7477 36.2702C55.5317 36.1925 56.4101 35.8533 57.3251 34.9415H63.2902V34.9436ZM58.6979 30.0819L59.862 30.7626H59.8792L60.1713 30.9333C59.5139 31.117 59.0114 31.4476 58.5904 31.8818C58.5753 31.8948 58.5603 31.9122 58.5453 31.9272C58.4486 32.0309 58.3519 32.1433 58.2617 32.2579C58.2446 32.2794 58.2274 32.3031 58.208 32.327C58.1179 32.4436 58.0341 32.5625 57.9525 32.6878C57.9395 32.7094 57.9245 32.731 57.9094 32.7504C57.8128 32.8952 57.7205 33.0508 57.6281 33.2107C56.799 34.6476 55.4759 35.5054 54.2987 35.5076C53.1239 35.5054 51.8007 34.6476 50.9716 33.2107C50.8813 33.0551 50.7911 32.9038 50.6945 32.757C50.675 32.7289 50.6579 32.7007 50.6407 32.677C50.5592 32.5581 50.4775 32.4415 50.3937 32.3313C50.3723 32.3011 50.353 32.2772 50.3314 32.2513C50.2413 32.1411 50.1489 32.0309 50.0565 31.9294C50.0372 31.9142 50.0243 31.8948 50.005 31.8775C49.5818 31.4432 49.0813 31.1147 48.4219 30.9333L48.7183 30.7626H48.7313L49.8953 30.0819L51.0918 29.3927L54.288 31.1428L54.2945 31.1364L54.303 31.1428L57.4992 29.3927L58.6979 30.0819ZM57.1212 28.632L54.5736 29.9826V24.5159L58.0297 23.3361L57.1212 28.632ZM54.2967 23.9152L50.5076 22.4092C50.8298 21.6421 52.3161 20.9895 54.2967 20.9874C56.2792 20.9895 57.7656 21.6421 58.0855 22.4092L54.2967 23.9152Z" fill="#222222"/>
</svg>
